<svg xmlns="http://www.w3.org/2000/svg" width="1775" height="1803"><path d="M1442.673 658.87q5.83.005 11.661-.007c18.501-.006 36.806.628 55.222 2.384 2.039.194 4.078.377 6.118.56 6.48.598 12.833 1.36 19.195 2.745 3.085.649 6.19 1.014 9.319 1.385 7.69.992 15.233 2.432 22.812 4.063l3.094.648c15.44 3.383 31.284 7.562 45.844 13.79a247 247 0 0 0 10.937 4.374c4.902 1.94 9.385 4.521 13.922 7.178 4.962 2.903 10.02 5.526 15.203 8.01v2l1.75.323c2.578.776 4.129 1.868 6.254 3.513l2.244 1.726 2.315 1.813c.767.59 1.535 1.18 2.326 1.79 6.96 5.387 6.96 5.387 9.111 7.835v2l3 1v2l3 1c4 4.457 4 4.457 4 7h2c1.367 1.758 1.367 1.758 2.875 4.125l1.602 2.492L1698 745l2.25 3.25c1.633 2.567 2.65 4.929 3.75 7.75l1.875 3c3.058 5.264 4.628 11.134 6.125 17l.78 2.855c2.363 9.55 2.62 18.633 2.501 28.424a800 800 0 0 0-.047 7.838l-.03 5.063-.014 2.327c-.176 13.479-.176 13.479-2.19 15.493-.542 3.226-.966 6.462-1.402 9.703-.554 3.057-1.401 5.45-2.598 8.297a407 407 0 0 0-1.875 6.75c-1.365 4.851-2.89 9.352-5.055 13.895-1.829 4.025-3.296 8.192-4.824 12.34-1.192 2.885-2.612 5.362-4.246 8.015a150 150 0 0 0-2.187 4.812l-1.043 2.395L1689 906h-2l-.812 2.625c-1.162 3.302-2.57 6.275-4.188 9.375l-1.187 2.375L1680 922h-2l-.812 2.687c-1.113 3.104-2.29 5.624-4.188 8.313h-2l-.346 1.761c-.71 2.428-1.668 3.998-3.123 6.06l-1.48 2.12-1.551 2.184-3.031 4.32-1.362 1.923c-1.17 1.646-1.17 1.646-2.107 3.632h-2l-.812 1.703c-1.268 2.453-2.678 4.736-4.188 7.047l-1.562 2.422L1648 968h-2l-.695 1.598c-1.738 3.199-3.94 5.984-6.18 8.84l-1.316 1.697a616 616 0 0 1-2.581 3.298 309 309 0 0 0-3.423 4.477L1630 990h-2l-.652 1.617c-1.844 3.26-4.348 5.811-6.91 8.508-3.624 3.639-3.624 3.639-6.438 7.875h-2l-2 4h-2v2h-2c-.26.59-.52 1.178-.79 1.785-1.284 2.35-2.645 3.818-4.585 5.652-2.036 1.97-3.823 3.818-5.562 6.063-2.436 2.953-5.198 5.254-8.106 7.73a42 42 0 0 0-4.707 5.02c-1.968 2.406-3.624 4.12-6.25 5.75h-2l-1 3h-2l-1 3h-2l-1 3c-1.672 1.684-1.672 1.684-3.75 3.437l-2.18 1.844L1559 1062l-2.875 2.437C1554 1066 1554 1066 1552 1066l-.7 1.754c-1.627 2.81-3.529 4.227-6.112 6.183-3.688 2.807-6.92 5.78-10.188 9.063a261 261 0 0 1-5.312 4.375c-3.33 2.692-6.615 5.404-9.813 8.25-3.307 2.92-6.73 5.637-10.23 8.32a354 354 0 0 0-5.883 4.672 574 574 0 0 1-24.24 18.575A692 692 0 0 0 1473 1132l-1.848 1.364c-2.275 1.764-3.941 3.134-5.07 5.82l-.27 2.253-.394 2.657L1465 1147a459 459 0 0 1-1.375 6.437c-.898 4.154-1.782 8.31-2.637 12.473l-.528 2.555q-.51 2.481-1.014 4.962c-.893 4.312-1.983 8.41-3.446 12.573a577 577 0 0 0-1.437 5.742c-.868 3.482-1.827 6.939-2.778 10.399q-.775 2.827-1.539 5.656a501 501 0 0 1-4.57 15.945 157 157 0 0 0-1.551 5.633c-1.352 4.356-3.123 8.464-4.902 12.66-1.621 3.93-2.935 7.916-4.223 11.965-4.895 15.183-4.895 15.183-7.977 21.777-1.21 2.629-2.302 5.295-3.398 7.973-4.1 9.87-8.69 19.476-13.516 29.007a336 336 0 0 0-5.222 10.794l-1.054 2.284a513 513 0 0 0-1.956 4.318c-1.886 4.114-4.065 7.664-6.763 11.295-1.364 1.9-2.343 3.858-3.301 5.99-5.942 12.254-14.01 23.57-21.637 34.824a1043 1043 0 0 0-3.242 4.828c-6.726 9.916-14.066 19.363-21.381 28.848-1.24 1.647-2.41 3.347-3.553 5.062h-2l-.875 1.812C1338 1425 1338 1425 1336 1428h-2l-.723 1.687c-1.566 2.836-3.512 4.94-5.714 7.313-3.267 3.529-3.267 3.529-6.223 7.312L1320 1446h-2l-.625 1.61c-1.955 3.398-4.596 5.9-7.375 8.64l-1.656 1.68c-4.09 4.07-4.09 4.07-6.344 4.07l-.807 1.804c-1.221 2.248-2.416 3.601-4.283 5.333l-1.862 1.737-1.985 1.813-2.029 1.87c-15.064 13.786-15.064 13.786-20.034 15.443l-1 3c-1.683 1.499-1.683 1.499-3.867 3.074l-2.42 1.763-2.588 1.85-2.616 1.896a1839 1839 0 0 1-5.161 3.726 655 655 0 0 0-5.88 4.285C1236.052 1518 1236.052 1518 1233 1518v2a110 110 0 0 1-6.625 4.125c-.68.4-1.36.8-2.06 1.21q-3.151 1.845-6.315 3.665l-1.827 1.058c-3.44 1.989-6.893 3.953-10.353 5.906a617 617 0 0 0-5.691 3.29 216 216 0 0 1-24.52 12.191 124 124 0 0 0-8.734 4.18c-5.009 2.576-10.238 4.35-15.555 6.187-3.463 1.24-6.764 2.678-10.101 4.215-8.513 3.732-17.475 6.477-26.375 9.118a515 515 0 0 0-6.063 1.867c-7.074 2.223-14.066 4.082-21.343 5.48l-2.625.508-2.356.437c-2.555.538-2.555.538-5.332 1.563-3.331 1.066-6.47 1.564-9.937 2-3.874.49-7.654 1.079-11.454 1.965-5.185 1.186-10.398 1.919-15.671 2.597l-3.021.395a248 248 0 0 1-21.37 1.752c-3.672.143-7.082.535-10.672 1.291-42.277 4.302-42.277 4.302-59.785-.489-2.957-.682-5.85-.826-8.88-1.011l-3.897-.25-6.117-.375q-2.96-.183-5.923-.375l-3.572-.219C914 1592 914 1592 912 1591a338 338 0 0 0-8.062-.875c-6.417-.669-12.772-1.503-19.125-2.625l-2.065-.359c-3.09-.562-6.085-1.238-9.103-2.11-5.41-1.53-10.915-2.496-16.438-3.531-4.293-.829-8.18-1.747-12.207-3.5a84 84 0 0 0-4.187-.938c-9.242-1.945-18.206-5.117-27.188-8l-3.172-1.013q-4.729-1.517-9.453-3.049l-3.356-1.075-3.246-1.054-2.924-.944C789 1561 789 1561 786 1559a445 445 0 0 0-6-2c-2.768-1.082-5.508-2.229-8.25-3.375-4.714-1.96-9.428-3.904-14.187-5.75-3.991-1.588-7.79-3.44-11.61-5.398-2.995-1.498-6.018-2.917-9.056-4.326-11.376-5.282-22.276-11.164-33.08-17.546-2.488-1.417-4.983-2.688-7.567-3.918-9.077-4.428-17.571-10.178-25.937-15.812l-2.067-1.355a131 131 0 0 1-5.148-3.696c-7.544-5.294-12.574-6.64-21.739-5.453-3.132.586-6.191 1.209-9.25 2.098-3.968 1-8.043 1.417-12.093 1.968-4.37.6-8.723 1.3-13.078 2-8.015 1.286-16.043 2.454-24.085 3.56l-2.537.355c-.738.1-1.475.202-2.236.307-2.076.309-2.076.309-4.063.85-2.21.538-4.342.783-6.607.991l-2.627.25-2.72.25q-2.67.245-5.34.5l-2.383.219c-2.366.251-2.366.251-4.774.781-2.79.544-5.512.793-8.347 1l-3.301.25-6.836.5-3.3.25-2.999.219c-2.723.223-2.723.223-5.115.781-3.695.692-7.397.828-11.145 1l-4.968.25-7.795.375q-3.775.184-7.55.375l-2.357.107c-3.163.16-5.832.386-8.853 1.393-2.982.097-5.94.136-8.922.13l-2.765.005q-4.53.004-9.063-.002l-6.288.003q-6.593.002-13.185-.006-8.459-.006-16.918.004-6.493.004-12.986 0l-6.24.002q-4.355.003-8.711-.007l-2.617.007c-3.353-.012-6.102-.068-9.305-1.136a169 169 0 0 0-6.16-.395l-3.807-.2-2.023-.106c-14.278-.766-28.219-2.44-42.321-4.853-4.636-.77-9.293-1.362-13.955-1.954-3.04-.547-5.81-1.5-8.734-2.492q-2.552-.524-5.125-.938c-6.05-1.06-11.944-2.468-17.875-4.062l-2.388-.642c-9.532-2.582-18.918-5.16-27.956-9.198-3.75-1.638-7.603-2.946-11.476-4.265C236 1480 236 1480 234 1478a86 86 0 0 0-4.375-1.688c-15.286-5.97-31.76-16.866-43.625-28.312v-2l-1.707-.695c-14.176-8.066-23.136-26.94-29.293-41.305l-1.387-3.203C151 1394.525 151 1394.525 151 1391q3.875-.04 7.75-.063l2.152-.025c4.331-.02 8.567.198 12.88.611 6.361.566 12.593.442 18.968.164l3.576-.142c9.772-.413 19.536-.956 29.299-1.545l2.146-.126q3.01-.182 6.018-.374l3.49-.219c2.684-.115 2.684-.115 4.721-1.281a97 97 0 0 1 4.691-.465l2.866-.236q2.964-.234 5.93-.461c5.309-.441 10.348-1.151 15.527-2.399 2.696-.596 5.358-.789 8.111-.939 4.57-.327 8.471-1.21 12.875-2.5 3.624-.57 7.253-1.063 10.89-1.535 3.134-.377 3.134-.377 6.11-1.465 2.735-.267 5.47-.444 8.21-.621 2.895-.393 5.1-1.273 7.79-2.379q2.644-.508 5.313-.875c4.929-.768 9.734-1.82 14.562-3.063a418 418 0 0 1 18.133-4.21c5.174-1.095 10.333-2.253 15.492-3.415l2.862-.636c4.648-1.05 9.133-2.231 13.638-3.801q1.96-.476 3.938-.875c6.018-1.292 11.942-2.938 17.883-4.541 3.972-1.065 7.951-2.104 11.929-3.147 11.598-3.046 23.158-6.19 34.64-9.652q2.577-.776 5.157-1.539c6.296-1.867 12.525-3.894 18.734-6.031l2.282-.778 2.003-.69c2.022-.62 4.072-1.15 6.125-1.653 4.63-1.138 9.148-2.57 13.684-4.032l7.455-2.376c2.59-.819 5.19-1.603 7.795-2.374 7.294-2.16 14.461-4.685 21.634-7.217 8.51-3 16.979-5.8 25.686-8.17 4.168-1.262 8.085-2.976 12.075-4.71 3.043-1.24 6.08-2.219 9.23-3.153 5.542-1.643 10.93-3.58 16.324-5.644 5.356-2.041 10.756-3.93 16.176-5.793 7.796-2.688 15.442-5.66 23.076-8.776a223 223 0 0 1 15.362-5.599c4.629-1.492 8.984-3.154 13.378-5.223 3.225-1.36 6.54-2.4 9.872-3.465 5.218-1.678 10.01-3.68 14.851-6.246 5.391-2.617 11.096-4.536 16.721-6.588 7.226-2.642 14.357-5.277 21.185-8.833 3.16-1.567 6.492-2.698 9.805-3.895 7.06-2.601 13.86-5.348 20.54-8.816 2.608-1.255 5.227-2.231 7.96-3.184 4.524-1.58 8.676-3.525 12.926-5.727 2.69-1.33 5.414-2.465 8.199-3.586 5.686-2.315 11.11-5.023 16.575-7.806a144 144 0 0 1 13.66-6.033c3.499-1.386 6.798-3.123 10.14-4.848 7.356-3.73 14.737-7.4 22.188-10.938l1.926-.928c2.83-1.33 4.717-2.134 7.886-2.134v-2l3.04-1.273c3.845-1.65 7.598-3.47 11.335-5.352l2.08-1.043c5.817-2.932 11.574-5.974 17.321-9.043a463 463 0 0 1 13.412-6.852c5.307-2.626 10.43-5.466 15.543-8.446 5.29-3.06 10.718-5.775 16.21-8.448 2.787-1.406 5.403-2.906 8.059-4.543 3.205-1.942 6.416-3.877 9.625-5.813l2.543-1.54c4.309-2.596 8.64-5.112 13.066-7.502 6.244-3.375 12.371-6.94 18.492-10.531q2.854-1.672 5.712-3.337c6.016-3.518 11.955-7.103 17.72-11.026 2.382-1.618 4.816-3.136 7.28-4.626l2.496-1.523C1040 1090 1040 1090 1042 1090v-2c9.41-5.371 9.41-5.371 14-7v-2c1.66-1.156 1.66-1.156 4.063-2.5 14.021-8.135 27.304-17.655 40.175-27.484 2.762-2.016 2.762-2.016 5.16-3.442 3.486-2.109 6.673-4.549 9.915-7.012l4.269-3.226 2.206-1.669q3.258-2.452 6.536-4.878c6.061-4.497 12.052-8.954 17.645-14.031 2.647-2.291 5.43-4.394 8.219-6.508 5.184-3.935 10.187-8.037 15.13-12.271a327 327 0 0 1 10.182-8.354c4.08-3.233 7.643-6.63 11.188-10.438C1192 976 1192 976 1194 976l1-3c1.707-1.684 1.707-1.684 3.813-3.438 2.3-1.942 4.458-3.84 6.562-6C1207 962 1207 962 1209 962l.799-1.789c1.25-2.303 2.549-3.775 4.424-5.594l1.88-1.847 1.96-1.895q1.927-1.875 3.847-3.758l1.723-1.668c1.474-1.423 1.474-1.423 2.367-3.449h2l.813-1.766c1.202-2.262 2.525-4.04 4.187-5.984l1.563-1.86C1236 931 1236 931 1238 931l.84-1.792c1.092-2.08 2.246-3.72 3.734-5.528l1.515-1.859 1.599-1.946c7.886-9.444 7.886-9.444 14.312-19.875h2l.836-2.23c1.08-2.572 2.296-4.735 3.789-7.083 11.042-18.178 24.035-42.649 19.613-64.44A118 118 0 0 0 1283 817c-.313-.924-.626-1.849-.95-2.8L1281 812l-3-1a210 210 0 0 1-4-5l-2-1v-2l-2.133-.785c-3.103-1.315-5.858-2.91-8.742-4.653-7.701-4.523-15.127-7.232-23.723-9.597a123 123 0 0 1-6.476-2.024c-2.905-.934-5.662-1.485-8.676-1.941-3.798-.595-7.554-1.253-11.312-2.063-4.545-.942-9.06-1.369-13.688-1.69C1195 780 1195 780 1193 779c-4.941-.535-9.913-.777-14.875-1.063l-2.324-.133c-28.593-1.594-57.206-1.198-85.801.133l-2.838.132q-3.957.189-7.912.396l-2.364.117c-3.428.19-6.57.572-9.886 1.418-2.101.19-4.206.34-6.312.465l-3.762.236q-3.879.234-7.758.461c-6.958.44-13.716 1.162-20.577 2.399-3.235.548-6.44.781-9.716.939-4.92.302-9.508.956-14.309 2.031-3.064.56-6.083.77-9.191.969-4.228.28-8.034.81-12.125 1.969-4.293 1.013-8.695 1.414-13.066 1.968-6.647.867-13.245 2.039-19.85 3.167q-3.562.603-7.127 1.185c-7.766 1.274-15.502 2.603-23.207 4.211-6.777 1.375-13.556 2.733-20.352 4.012l-2.801.528q-2.718.51-5.438 1.014c-3.99.75-7.925 1.553-11.85 2.59-3.425.824-5.245.892-8.559-.144 2.267-2.267 4.195-3.094 7.125-4.375 3.358-1.489 6.675-3 9.938-4.688 2.883-1.468 5.796-2.702 8.812-3.875a104 104 0 0 0 9.75-4.375c9.683-4.94 19.693-9.195 29.945-12.8 3.044-1.11 5.972-2.41 8.918-3.754 4.35-1.962 8.75-3.809 13.14-5.676a290 290 0 0 0 8.31-3.77c3.71-1.674 7.012-2.342 11.062-2.687v-2l2.86-.918c7.176-2.332 14.166-4.849 21.105-7.828 4.514-1.865 9.118-3.451 13.726-5.067a183 183 0 0 0 8.372-3.25c4.796-1.96 9.695-3.452 14.664-4.91 3.819-1.198 7.537-2.594 11.273-4.027l3.965-1.5 1.97-.745c8.223-3.1 16.338-6.127 24.9-8.157 2.617-.723 5.122-1.649 7.665-2.598 3.804-1.418 7.533-2.592 11.484-3.508 3.16-.771 6.253-1.754 9.364-2.703 3.651-1.086 7.329-2.067 11.011-3.043 2.916-.824 5.768-1.786 8.641-2.746a616 616 0 0 1 8.125-2.438c.75-.22 1.501-.441 2.275-.67a346 346 0 0 1 15.631-4.142c3.41-.861 6.78-1.831 10.157-2.813 4.43-1.281 8.831-2.432 13.343-3.375 3.328-.758 6.614-1.665 9.907-2.562a216 216 0 0 1 17.562-4c6.52-1.18 6.52-1.18 12.875-3 3.988-1.276 7.987-1.85 12.117-2.504 5.02-.828 9.944-2.004 14.89-3.184 12.942-3.052 25.964-5.38 39.118-7.312a6817 6817 0 0 0 7.837-1.158q2.68-.397 5.361-.79l2.493-.368 2.225-.327c2.096-.331 2.096-.331 4.17-.884 3.693-.912 7.546-.879 11.332-1.094 2.75-.29 5.171-.711 7.84-1.348 5.11-1.193 10.207-1.663 15.43-2.094q2.724-.233 5.449-.472l2.397-.2a86 86 0 0 0 5.359-.763c3.236-.523 6.414-.791 9.685-1.002l3.77-.25 3.902-.25c9.724-.597 9.724-.597 19.422-1.5 16.943-1.735 33.99-1.658 51-1.63" fill="#1EB8C2"/><path d="m774.575 206.855 2.889-.02 3.15-.003 3.27-.01q3.452-.007 6.903-.007c3.445-.002 6.89-.02 10.336-.04 13.034-.032 25.812.524 38.762 2 3.075.327 6.155.53 9.24.725 4.737.346 9.292 1.052 13.95 1.969 3.36.61 6.724 1.043 10.113 1.468 7.338.952 14.57 2.24 21.826 3.672 1.968.387 3.938.766 5.908 1.145 7.762 1.513 15.436 3.209 23.078 5.246l3.832 1.02c19.046 5.145 37.898 10.796 56.192 18.203 3.17 1.247 6.383 2.349 9.601 3.464 4.29 1.51 8.278 3.163 12.285 5.297 2.636 1.281 5.34 2.256 8.09 3.266 6.066 2.275 11.78 5.022 17.531 7.983 2.594 1.335 5.155 2.644 7.871 3.712 4.029 1.636 7.82 3.709 11.66 5.742l2.567 1.355a397 397 0 0 1 16.652 9.36c4.509 2.65 9.101 5.145 13.719 7.598.928.61.928.61 1.875 1.23 5.073 1.837 12.057-.741 17.34-1.753l2.343-.445 7.38-1.407 7.252-1.38 2.4-.456 2.407-.458 9.162-1.742a1257 1257 0 0 1 28.466-5.089l3.928-.654c10.272-1.696 20.563-3.17 30.887-4.508a682 682 0 0 0 7.537-1.045c26.595-3.797 53.253-6.61 80.08-8.066 3.339-.192 6.674-.41 10.01-.644 18.775-1.315 37.487-1.772 56.308-1.77l3.227-.003c20.018.002 39.942.746 59.89 2.437 2.301.194 4.604.377 6.906.56 6.92.566 13.718 1.235 20.508 2.745 3.214.688 6.454 1.025 9.719 1.385 8.21.965 16.274 2.431 24.375 4.063l3.484.684c14.82 3.022 29.24 7.356 43.516 12.316l3.691 1.25c6.069 2.095 11.884 4.326 17.567 7.316a208 208 0 0 0 6.422 3.211c14.765 7.12 27.651 15.848 40.32 26.223l1.624 1.316c14.792 12.112 27.962 31.175 33.626 49.371l1.078 3.387C1628 381 1628 381 1627 384l-2.698-.124c-37.316-1.604-74.324-.276-111.302 5.124l-2.944.427q-6.97 1.026-13.914 2.21c-2.309.391-4.62.769-6.931 1.144l-6.902 1.13c-5.462.909-10.885 1.977-16.309 3.089l-3.366.69q-5.6 1.151-11.196 2.31c-1.263.26-2.526.52-3.827.79-5.811 1.2-11.615 2.424-17.404 3.727-2.562.56-5.131 1.08-7.703 1.596-10.048 2.021-19.986 4.156-29.832 7.007-5.811 1.674-11.66 3.122-17.547 4.505l-2.698.634-5.114 1.198c-7.493 1.76-14.863 3.572-22.106 6.191-5.761 2.011-11.602 3.502-17.535 4.906-2.778.668-5.448 1.354-8.094 2.442-2.29.892-4.36 1.434-6.754 1.941-5.093 1.08-10.035 2.541-15.011 4.063-.864.26-1.727.52-2.616.79a425 425 0 0 0-15.26 4.92c-4.379 1.502-8.783 2.816-13.246 4.048-8.026 2.282-15.881 4.982-23.753 7.742-8.605 3.01-17.207 5.942-25.934 8.584-4.588 1.4-9.14 2.9-13.691 4.416l-2.604.855c-6 1.996-11.855 4.26-17.709 6.645-7.107 2.766-14.274 4.995-21.64 6.973-3.595 1.099-6.915 2.527-10.36 4.027-3.09 1.184-6.201 2.31-9.312 3.437-5.01 1.828-10.009 3.652-14.938 5.688-4.8 1.971-9.718 3.56-14.663 5.125-3.06.987-5.388 1.95-8.087 3.75-1.992.69-3.994 1.352-6 2-2.867 1.071-5.714 2.193-8.562 3.312l-4.84 1.891-2.383.932c-6.411 2.504-12.828 4.993-19.29 7.365-9.086 3.34-9.086 3.34-17.816 7.508-2.92 1.373-5.934 2.376-8.984 3.43a105 105 0 0 0-14.57 6.312c-3.987 1.95-8.138 3.431-12.293 4.98-4.101 1.597-8.057 3.441-12.02 5.352C995 550 995 550 992 550v2l-2.492.918c-6.228 2.337-12.208 4.833-18.11 7.898-2.447 1.208-4.913 2.208-7.46 3.184a67 67 0 0 0-9.438 4.5 65 65 0 0 1-9.312 4.437c-4.72 1.82-9.166 4.008-13.672 6.301-4.206 2.108-8.45 4.128-12.703 6.137l-2.46 1.165a1173 1173 0 0 1-11.86 5.534c-7.904 3.642-15.464 7.53-22.977 11.93-3.7 2.136-7.498 4.046-11.328 5.933-21.059 10.389-41.532 21.944-62 33.438l-1.885 1.055c-5.082 2.854-10.116 5.786-15.147 8.728a2303 2303 0 0 1-9.332 5.412l-3.068 1.778a2841 2841 0 0 1-6.195 3.578c-5.398 3.133-10.525 6.393-15.561 10.074a97 97 0 0 1-4.25 2.375c-5.423 2.945-10.57 6.277-15.75 9.625l-3.285 2.098c-10.535 6.727-21.017 13.546-31.215 20.777-3.102 2.197-6.236 4.096-9.566 5.934-3.621 2.23-6.937 4.893-10.32 7.464-4.375 3.316-8.802 6.558-13.239 9.79l-2.407 1.77-2.257 1.64-2.022 1.476C661 738 661 738 659 738v2a136 136 0 0 1-6.875 5.125l-1.973 1.418C645.264 750 645.264 750 643 750v2a104 104 0 0 1-5.687 4.375c-4.612 3.366-4.612 3.366-9.083 6.914C626 765 626 765 624 765v2c-2.117 1.945-2.117 1.945-4.875 4.125l-2.742 2.195C614 775 614 775 612 775v2c-1.407 1.248-2.879 2.423-4.375 3.562-4.76 3.696-9.197 7.632-13.594 11.75C592 794 592 794 590 794v2c-1.574 1.55-1.574 1.55-3.687 3.312-2.511 2.124-4.921 4.243-7.188 6.625C577 808 577 808 575 808l-.707 1.734c-1.6 2.805-3.524 4.424-5.98 6.516-4.527 3.973-8.456 8.14-12.313 12.75q-1.869 2.16-3.75 4.312l-1.672 1.926c-3.016 3.368-3.016 3.368-4.578 4.762h-2l-.727 1.672c-1.568 2.868-3.511 5.102-5.648 7.578C529.117 859.263 520.91 869.812 514 881l-1.132 1.831C507.475 891.61 502.495 900.268 499 910l-1.336 3.648c-4.862 13.66-8.374 27.445-2.664 41.352 7.39 14.281 20.667 21.312 35 27l2.43 1.062c7.595 3.274 15.531 5.122 23.57 6.938l1.977.45c7.656 1.717 15.123 2.842 22.953 3.304 2.87.23 5.562.683 8.383 1.246 36.578 6.268 81.847 4.982 118.484-.465 5.87-.82 11.793-1.128 17.703-1.535 8.77-.61 17.459-1.375 26.168-2.563 4.057-.532 8.116-.885 12.195-1.19 2.32-.194 2.32-.194 5.137-1.247 2.729-.299 5.454-.564 8.188-.813 10.753-1.053 21.35-2.845 31.99-4.698 4.062-.704 8.13-1.378 12.197-2.052l4.328-.722q4.42-.737 8.844-1.461c18.748-3.08 37.323-6.854 55.911-10.772q3.114-.653 6.23-1.295l3.386-.707c2.709-.444 5.189-.576 7.926-.48-1 3-1 3-2.607 3.996l-2.077.871-2.296.987-2.457 1.021q-2.486 1.066-4.97 2.137l-2.417 1.036c-2.583 1.13-5.104 2.356-7.613 3.64-7.24 3.694-14.57 6.974-22.188 9.812-3.806 1.431-7.318 2.925-10.812 5-4.79 2.812-9.873 4.462-15.11 6.262-3.857 1.383-7.499 3.043-11.203 4.785-5.233 2.34-10.572 4.414-15.907 6.51-4.07 1.607-8.098 3.26-12.085 5.064-3.368 1.517-6.735 2.759-10.258 3.879q-3.6 1.328-7.187 2.687c-13.507 5.088-27.042 10.087-40.665 14.856q-4.061 1.422-8.109 2.883c-10.681 3.841-21.468 7.315-32.289 10.742a604 604 0 0 0-10.578 3.45c-3.614 1.212-7.25 2.296-10.922 3.32a503 503 0 0 0-13.125 3.874c-14.647 4.532-29.342 8.85-44.24 12.482-5.86 1.432-11.651 3.044-17.444 4.733-9.39 2.655-18.896 4.945-28.441 6.973l-3.16.68q-7.108 1.526-14.219 3.039c-5.022 1.07-10.041 2.144-15.047 3.289-7.671 1.75-15.279 3.337-23.074 4.445-3.308.517-6.57 1.144-9.851 1.805-36.433 7.286-73.788 12.09-110.846 14.539-1.787.13-3.573.278-5.356.453-11.074 1.08-22.204 1.164-33.322 1.375l-3.448.066c-40.588.74-81.634.87-121.677-6.691l-2.875-.54c-38.929-7.38-38.929-7.38-53.168-13.284-3.055-1.215-6.11-2.144-9.27-3.051-22.07-6.65-46.89-19.102-63.687-35.125v-2l-1.703-.719C90.477 1047.687 82.022 1033.666 76 1022a327 327 0 0 0-2.187-3.75c-9.076-16.273-11.395-34.558-11.25-52.875l.006-2.378C62.622 950.301 63.729 938.31 67 926l.828-3.387A152 152 0 0 1 70 915l.64-2.125c3.224-10.194 7.304-20.269 12.282-29.727 1.116-2.14 1.116-2.14 1.969-4.433 8.513-20.835 22.51-39.768 35.324-58.098 1.759-2.453 1.759-2.453 2.785-4.617h2l1-4h2l.762-1.66c1.47-2.78 3.204-5.232 5.05-7.778l2.02-2.808c2.216-2.816 4.622-5.236 7.168-7.754a279 279 0 0 0 4.688-5.625l2.324-2.852c2.063-2.55 2.063-2.55 3.988-5.523h2l.8-1.797c1.244-2.283 2.504-3.677 4.388-5.453 2.465-2.332 4.709-4.773 6.915-7.346 3.952-4.53 8.138-8.79 12.393-13.033l2.401-2.404q2.499-2.499 5-4.994a4630 4630 0 0 0 7.59-7.596l4.884-4.88 2.26-2.268c4.083-4.064 8.25-7.961 12.63-11.703 1.767-1.502 1.767-1.502 3.342-3.223C220 712 220 712 222 712l1-3h2v-2c1.593-1.435 3.253-2.798 4.938-4.125a233 233 0 0 0 13.285-11.441C245 690 245 690 247 690v-2c4.47-4 4.47-4 7-4v-2a98 98 0 0 1 5.188-3.813c4.025-2.785 7.366-5.72 10.812-9.187a232 232 0 0 1 6.313-4.938l1.728-1.314q2.476-1.88 4.959-3.748l2.484-1.875A1513 1513 0 0 1 291 653l2.09-1.66C295 650 295 650 297 650v-2c2.653-2.072 5.425-3.932 8.203-5.832 4.787-3.71 7.124-7.006 8.422-12.918l.664-2.922L315 623c3.55-16.26 7.775-32.197 13-48l.672-2.042q1.54-4.668 3.11-9.325 1.27-3.783 2.5-7.578c2.006-6.174 4.084-12.216 6.827-18.106 1.123-2.457 2.048-4.98 2.977-7.515 1.258-3.35 2.585-6.673 3.914-9.997l.755-1.895A503 503 0 0 1 354 506h2l.188-2.375c1.123-5.013 3.442-9.09 5.812-13.625q1.384-2.771 2.753-5.55c5.968-12.054 12.096-24.024 18.997-35.575l1.068-1.791c2.2-3.628 4.584-7.068 7.07-10.499 1.327-1.892 2.427-3.845 3.487-5.898 2.814-5.187 6.187-9.9 9.625-14.687q1.848-2.622 3.688-5.25l1.742-2.477a178 178 0 0 0 3.883-5.898L416 400h2l.676-2.11c1.631-3.56 3.941-6.236 6.512-9.14q1.504-1.734 3.003-3.473l1.47-1.7c1.727-2.034 3.352-4.137 4.964-6.265 3.855-5.02 8.094-9.653 12.375-14.312l2.574-2.855c6.21-6.856 12.646-13.47 19.176-20.02l2.4-2.414c4.79-4.777 9.724-9.3 14.85-13.711 2.576-2.32 5.14-4.65 7.703-6.984C499.42 312 499.42 312 502 312v-2c1.651-1.403 3.376-2.721 5.125-4l1.62-1.19A821 821 0 0 1 514 301l1.781-1.286q5.296-3.816 10.626-7.586a1205 1205 0 0 0 4.21-3c23.01-16.332 48.516-31.984 74.903-42.136 2.627-1.05 5.17-2.226 7.73-3.43 5.258-2.424 10.625-4.373 16.098-6.253a208 208 0 0 0 8.445-3.25c5.084-2.05 10.23-3.79 15.457-5.434l2.854-.901c14.779-4.615 29.69-8.776 44.896-11.724l3.668-.738A546 546 0 0 1 717 213l2.274-.391c12.932-2.164 25.87-3.229 38.95-3.963l3.756-.216c1.113-.06 2.226-.12 3.372-.18 3.329-.314 5.778-1.38 9.223-1.395" fill="#F16031"/><path d="M1465 1139c.417 6.944-.97 13.132-2.525 19.881a392 392 0 0 0-1.495 7.037l-.524 2.551q-.507 2.479-1.01 4.958c-.893 4.312-1.983 8.41-3.446 12.573a577 577 0 0 0-1.437 5.742c-.868 3.482-1.827 6.939-2.778 10.399q-.776 2.827-1.539 5.656a501 501 0 0 1-4.57 15.945 157 157 0 0 0-1.551 5.633c-1.352 4.356-3.123 8.464-4.902 12.66-1.621 3.93-2.935 7.916-4.223 11.965-4.895 15.183-4.895 15.183-7.977 21.777-1.21 2.629-2.302 5.295-3.398 7.973-4.1 9.87-8.69 19.476-13.516 29.007a336 336 0 0 0-5.222 10.794l-1.054 2.284a513 513 0 0 0-1.956 4.318c-1.886 4.114-4.065 7.664-6.763 11.295-1.364 1.9-2.343 3.858-3.302 5.99-5.94 12.254-14.01 23.57-21.636 34.824a1043 1043 0 0 0-3.242 4.828c-6.726 9.916-14.066 19.363-21.381 28.848-1.24 1.647-2.41 3.347-3.553 5.062h-2l-.875 1.813C1338 1425 1338 1425 1336 1428h-2l-.723 1.688c-1.566 2.835-3.512 4.94-5.715 7.312-3.266 3.529-3.266 3.529-6.222 7.313L1320 1446h-2l-.625 1.61c-1.955 3.398-4.596 5.9-7.375 8.64l-1.656 1.68c-4.09 4.07-4.09 4.07-6.344 4.07l-.807 1.804c-1.221 2.248-2.416 3.601-4.283 5.333l-1.862 1.737-1.986 1.813-2.028 1.87c-15.064 13.786-15.064 13.786-20.034 15.443l-1 3c-1.683 1.499-1.683 1.499-3.867 3.074l-2.42 1.763-2.588 1.85-2.616 1.896a1839 1839 0 0 1-5.161 3.726 655 655 0 0 0-5.88 4.285C1236.052 1518 1236.052 1518 1233 1518v2a110 110 0 0 1-6.625 4.125c-.68.4-1.36.8-2.06 1.21q-3.151 1.845-6.315 3.665l-1.827 1.058c-3.44 1.989-6.893 3.953-10.353 5.906a617 617 0 0 0-5.691 3.29 216 216 0 0 1-24.52 12.191 124 124 0 0 0-8.734 4.18c-5.009 2.576-10.238 4.35-15.555 6.188-3.463 1.238-6.764 2.677-10.101 4.214-8.513 3.732-17.475 6.477-26.375 9.118a515 515 0 0 0-6.063 1.867c-7.074 2.223-14.066 4.082-21.343 5.48l-2.626.508-2.355.438c-2.555.537-2.555.537-5.332 1.562-3.331 1.066-6.47 1.564-9.937 2-3.874.49-7.654 1.079-11.454 1.965-5.185 1.186-10.398 1.919-15.671 2.598l-3.021.394a248 248 0 0 1-21.37 1.752c-3.672.143-7.082.535-10.672 1.291-42.277 4.302-42.277 4.302-59.785-.489-2.957-.682-5.85-.826-8.88-1.011l-3.898-.25-6.116-.375q-2.96-.183-5.923-.375l-3.572-.219C914 1592 914 1592 912 1591a338 338 0 0 0-8.062-.875c-6.417-.669-12.772-1.503-19.125-2.625l-2.065-.359c-3.09-.562-6.085-1.238-9.103-2.11-5.41-1.53-10.915-2.496-16.438-3.531-4.293-.829-8.18-1.747-12.207-3.5a84 84 0 0 0-4.187-.937c-9.242-1.946-18.206-5.118-27.188-8l-3.172-1.014A3096 3096 0 0 1 801 1565l-3.356-1.075-3.246-1.054-2.924-.944C789 1561 789 1561 786 1559a445 445 0 0 0-6-2c-2.768-1.082-5.508-2.229-8.25-3.375-4.714-1.96-9.428-3.904-14.187-5.75-3.991-1.588-7.79-3.44-11.61-5.398-2.995-1.498-6.018-2.917-9.056-4.326-11.376-5.282-22.276-11.164-33.08-17.546-2.488-1.417-4.983-2.688-7.567-3.918-9.728-4.745-18.797-10.98-27.746-17.039-6.087-4.007-12.313-7.804-18.504-11.648 4.344-2.896 8.86-2.424 13.928-2.566 4.508.013 4.508.013 8.072-2.434 3.605-.389 7.19-.508 10.813-.656 3.278-.017 3.278-.017 5.187-2.344 2.824-.383 5.624-.507 8.469-.656 2.697-.106 2.697-.106 4.531-2.344 2.824-.383 5.624-.507 8.469-.656 2.697-.106 2.697-.106 4.531-2.344 3.344-.387 6.669-.507 10.031-.656 3.085-.046 3.085-.046 4.969-2.344 2.059-.344 2.059-.344 4.438-.5 3.5-.23 4.504-.462 7.562-2.5 2.823-.604 5.649-1.013 8.504-1.437 2.654-.365 2.654-.365 4.496-2.563 2.207-.344 2.207-.344 4.813-.5 3.813-.306 6.665-.977 10.187-2.5l3.563-.5c3.282-.287 3.282-.287 5.375-1.5 2.18-1.057 3.73-1.256 6.125-1.5 3.983-.209 3.983-.209 6.937-2.5 1.973-.344 1.973-.344 4.063-.5 3.937-.092 3.937-.092 5.937-2.5 2.304-.378 4.578-.505 6.906-.656 2.31-.17 2.31-.17 4.094-2.344 2.348-.598 2.348-.598 5.063-1.062 3.268-.348 3.268-.348 5.937-1.938l3.438-.437c3.603-.211 3.603-.211 5.562-2.563 2.548-.62 5.1-1.016 7.688-1.437 2.49-.394 2.49-.394 4.312-2.563 2.066-.527 2.066-.527 4.563-.937 3.436-.627 6.645-1.395 9.937-2.563 4.09-1.45 8.157-2.27 12.434-2.973 2.271-.392 2.271-.392 4.066-2.527l7-1 2-2 7-1 2-2 7-1 2-2c1.898-.5 3.799-.992 5.71-1.434 4.652-1.15 9.21-2.703 13.634-4.539 3.112-1.203 6.251-2.081 9.468-2.965 9.303-2.178 9.303-2.178 17.188-7.062a309 309 0 0 1 7-2l1-1 3.438-.437c3.603-.211 3.603-.211 5.562-2.563 1.667-.5 3.337-.994 5.02-1.441 6-1.693 11.76-4.264 17.535-6.586 4.107-1.634 8.248-3.175 12.402-4.684 4.416-1.62 8.707-3.436 12.992-5.375 1.666-.742 3.355-1.43 5.051-2.101 1.964-.647 1.964-.647 3-1.813l3.438-.437c3.603-.211 3.603-.211 5.562-2.563 1.985-.71 3.99-1.367 6-2 1.987-.722 3.962-1.47 5.938-2.223q1.991-.751 4-1.46c4.753-1.697 9.188-3.81 13.667-6.133 3.657-1.808 7.445-3.217 11.27-4.621 3.762-1.405 7.444-2.957 11.125-4.563l3.25-1.375c3.046-1.301 6.053-2.679 9.063-4.062a175 175 0 0 1 10.874-4.563c4.01-1.563 7.425-3.548 11.012-5.906 2.476-1.504 5.033-2.27 7.801-3.094q3.513-1.47 7-3l3.438-1.437a132 132 0 0 0 7.374-3.5c3.889-1.99 7.89-3.536 11.989-5.036 2.239-.887 2.239-.887 3.68-2.554 2.538-2.46 5.79-2.79 9.144-3.63 2.548-.905 3.59-1.869 5.375-3.843a78 78 0 0 1 5-2 188 188 0 0 0 13-6c3.098-1.582 6.152-3.062 9.375-4.375 3.458-1.55 6.438-3.34 9.613-5.379 3.22-1.994 6.607-3.596 10.012-5.246q3.596-1.776 7.188-3.562l3.542-1.754c2.837-1.461 5.549-3.022 8.27-4.684a402 402 0 0 1 6-3l3-1.5a398 398 0 0 1 6-2.937c3.064-1.528 3.064-1.528 6-3.563 3.752-2.502 7.687-4.373 11.75-6.312 2.79-1.45 5.441-2.992 8.125-4.626 3.012-1.832 6.006-3.544 9.188-5.062 3.848-1.854 7.275-4.173 10.761-6.633 2.176-1.367 2.176-1.367 4.621-2.34 2.856-1.148 5.182-2.634 7.743-4.34 3.607-2.344 7.185-4.447 11.062-6.312 3.634-1.751 6.765-3.714 9.984-6.129 2.662-1.878 5.51-3.374 8.368-4.93 8.23-4.476 8.23-4.476 15.71-10.066 2.688-2.25 2.688-2.25 4.922-3.117 3.506-1.436 6.553-3.433 9.704-5.508l1.802-1.172a688 688 0 0 0 8.408-5.57 147 147 0 0 1 7.54-4.633c4.813-2.857 9.29-6.064 13.769-9.418 2.543-1.832 2.543-1.832 5.188-3.418 2.481-1.49 4.555-3.274 6.75-5.152 2.683-2.11 5.61-3.628 8.605-5.262 4.058-2.34 7.883-4.96 11.688-7.687l1.857-1.327a243 243 0 0 0 13.271-10.295c2.184-1.691 2.184-1.691 4.832-3.277 2.468-1.34 2.468-1.34 4.415-3.601C1461 1139 1461 1139 1465 1139" fill="#1CA6B1"/><path d="m774.575 206.855 2.889-.02 3.15-.003 3.27-.01q3.452-.007 6.903-.007c3.445-.002 6.89-.02 10.336-.04 13.034-.032 25.812.524 38.762 2 3.075.327 6.155.53 9.24.725 4.737.346 9.292 1.052 13.95 1.969 3.36.61 6.724 1.043 10.113 1.468 7.338.952 14.57 2.24 21.826 3.672 1.968.387 3.938.766 5.908 1.145 7.762 1.513 15.436 3.209 23.078 5.246l3.832 1.02c19.046 5.145 37.898 10.796 56.192 18.203 3.17 1.247 6.383 2.349 9.601 3.464 4.29 1.51 8.278 3.163 12.285 5.297 2.636 1.281 5.34 2.256 8.09 3.266 6.066 2.275 11.78 5.022 17.531 7.983 2.594 1.335 5.155 2.644 7.871 3.712 4.029 1.636 7.82 3.709 11.66 5.742l2.567 1.355a387 387 0 0 1 16.644 9.36c3.791 2.222 7.664 4.282 11.547 6.336C1084 290 1084 290 1086 292l-2.336.367-3.039.508-3.023.492c-2.745.429-2.745.429-4.602 2.633-3.084.385-6.146.507-9.25.656-2.891.076-2.891.076-4.75 2.344-2.242.344-2.242.344-4.875.5-3.635.217-5.906.865-9.125 2.5-2.33.35-4.627.5-6.977.656-2.246.181-2.246.181-4.023 2.344-2.09.41-4.199.732-6.312 1-4.25.543-7.746 1.348-11.688 3l-3.687.5c-3.384.176-3.384.176-5.313 2.5-2.304.378-4.578.505-6.906.656-2.31.17-2.31.17-4.094 2.344-2.023.344-2.023.344-4.375.5-3.409.228-5.62.897-8.625 2.5q-3.498 1.009-7 2l-1 1c-2.254.283-4.508.448-6.773.621-2.506.271-2.506.271-5.227 2.379-2.576.367-5.125.504-7.723.656-2.472.143-2.472.143-4.277 2.344-5.41 2.36-10.558 3.587-16.387 4.473-2.724.55-5.057 1.45-7.613 2.527q-3.498 1.008-7 2-2.19.743-4.375 1.5c-3.881 1.325-7.747 2.226-11.777 2.973-2.075.43-2.075.43-3.848 2.527l-7 1-2 2-7 1-2 2c-1.848.492-1.848.492-4.062.875-3.242.662-6.019 1.51-9 2.937-4.982 2.363-10.164 3.89-15.442 5.437-3.225.962-5.672 1.868-8.496 3.751-1.973.344-1.973.344-4.062.5-3.938.092-3.938.092-5.938 2.5a511 511 0 0 1-7 2c-4.322 1.48-4.322 1.48-8 4l-3.375.437c-3.71.316-3.71.316-6.625 2.563a511 511 0 0 1-7 2c-2.693.933-5.345 1.964-8 3l-2.66 1.012-2.715 1.05-2.523.973c-2.258.89-2.258.89-4.102 2.965-2.73 1.248-5.423 2.12-8.312 2.937-3.995 1.151-7.814 2.568-11.688 4.063a1996 1996 0 0 1-4 1.5l-2.012.758q-1.936.723-3.883 1.422a161 161 0 0 0-19.207 8.41C732 405 732 405 728.375 406c-3.412.72-3.412.72-5.375 3-1.985.71-3.99 1.367-6 2-5.084 1.815-10.052 3.84-15 6-7 3-7 3-10.312 4.375-3.841 1.639-7.544 3.537-11.258 5.441-3.565 1.737-7.04 3.078-10.867 4.121-3.488 1.04-6.355 2.36-9.563 4.063q-1.998 1.005-4 2l-2.047 1.027c-1.727.86-3.464 1.7-5.203 2.535-2.712 1.285-2.712 1.285-4.562 3-2.912 1.914-5.762 2.317-9.165 2.91-2.233.4-2.233.4-4.023 2.528l-6 2q-2.858 1.186-5.687 2.437l-2.825 1.247c-2.483 1.154-2.483 1.154-4.039 2.882-2.33 2.305-5.201 2.725-8.293 3.59-2.365.926-3.454 2-5.156 3.844-2.267 1.036-4.565 1.853-6.926 2.648-4.407 1.544-7.498 3.259-11.074 6.352-3.87 2.648-7.507 3.727-12 5-2.29.948-4.54 1.96-6.79 3-2.21 1-2.21 1-4.679 1.871-2.968 1.324-4.97 3.048-7.406 5.191-4.166 3.45-6.705 4.417-12.125 4.938-1.458 1.199-2.912 2.405-4.29 3.695-2.046 1.561-3.957 2.184-6.397 2.992-4.603 1.66-7.295 3.997-10.75 7.438-4.646 4.501-7.65 5.776-13.989 6.39-3.764.709-5.992 2.68-8.87 5.102-2.084 1.692-4.198 2.46-6.704 3.383l-3 2c-3 2-3 2-5.238 2.875-3.487 1.42-6.695 3.248-9.95 5.125l-1.904 1.078c-2.575 1.476-4.8 2.813-6.908 4.922l-2.25.812c-2.964 1.126-2.964 1.126-5.75 3.688-2.8 2.334-4.651 3.275-8 4.5-3.285 1.745-6.463 3.667-9.625 5.625C432 555 432 555 429.625 555.84c-2.95 1.304-4.691 2.86-7 5.097-3.704 3.405-6.918 5.214-11.625 7.063-4.056 2.45-7.915 5.1-11.562 8.125-2.167 1.666-4.052 2.714-6.5 3.875-3.303 1.577-5.424 3.312-7.938 6a209 209 0 0 1-5 3q-3.252 1.995-6.5 4c-6.205 3.827-6.205 3.827-9.23 5.598-2.462 1.437-2.462 1.437-5.082 3.84-2.242 1.931-4.373 3.21-7.063 4.437-4.064 1.904-7.034 4.515-10.324 7.531-2.115 1.872-4.356 3.188-6.801 4.594-3.854 2.744-7.589 5.617-11.187 8.687-2.521 2.073-4.983 3.707-7.813 5.313l-3 2c-.216-4.533.499-7.746 2-12q.49-2.051.93-4.113c3.241-14.88 7.29-29.431 12.07-43.887l.672-2.042q1.54-4.668 3.11-9.325 1.27-3.783 2.5-7.578c2.006-6.174 4.084-12.216 6.827-18.106 1.123-2.457 2.048-4.98 2.977-7.515 1.258-3.35 2.585-6.673 3.914-9.997l.755-1.895A503 503 0 0 1 354 506h2l.188-2.375c1.123-5.013 3.442-9.09 5.812-13.625q1.384-2.771 2.753-5.55c5.968-12.054 12.096-24.024 18.997-35.575l1.068-1.791c2.2-3.628 4.584-7.068 7.07-10.499 1.327-1.892 2.427-3.845 3.487-5.898 2.814-5.187 6.187-9.9 9.625-14.687q1.848-2.622 3.688-5.25l1.742-2.477a178 178 0 0 0 3.883-5.898L416 400h2l.676-2.11c1.631-3.56 3.941-6.236 6.512-9.14q1.504-1.734 3.003-3.473l1.47-1.7c1.727-2.034 3.352-4.137 4.964-6.265 3.855-5.02 8.094-9.653 12.375-14.312l2.574-2.855c6.21-6.856 12.646-13.47 19.176-20.02l2.4-2.414c4.79-4.777 9.724-9.3 14.85-13.711 2.576-2.32 5.14-4.65 7.703-6.984C499.42 312 499.42 312 502 312v-2c1.651-1.403 3.376-2.721 5.125-4l1.62-1.19A821 821 0 0 1 514 301l1.781-1.286q5.296-3.816 10.626-7.586a1205 1205 0 0 0 4.21-3c23.01-16.332 48.516-31.984 74.903-42.136 2.627-1.05 5.17-2.226 7.73-3.43 5.258-2.424 10.625-4.373 16.098-6.253a208 208 0 0 0 8.445-3.25c5.084-2.05 10.23-3.79 15.457-5.434l2.854-.901c14.779-4.615 29.69-8.776 44.896-11.724l3.668-.738A546 546 0 0 1 717 213c.75-.13 1.5-.258 2.274-.391 12.932-2.164 25.87-3.229 38.95-3.963l3.756-.216c1.113-.06 2.226-.12 3.372-.18 3.329-.314 5.778-1.38 9.223-1.395" fill="#FE8532"/><path d="M1419 657h53v1h-53z" fill="#C7EEF1"/><path d="m626 449 3 1c-3.708 3.469-7.139 4.904-11.914 6.29-2.35.7-2.35.7-5.086 2.71 1.049-2.945 1.796-3.885 4.566-5.45l2.996-1.238c3.472-1.257 3.472-1.257 6.438-3.312" fill="#F97031"/><path d="M942 1596h19v1h-19z" fill="#BBE4E7"/><path d="M456 1512h19v1h-19z" fill="#C3EDEE"/><path d="M993 1596h17v1h-17z" fill="#BBE5E9"/><path d="M384 1512h16v1h-16z" fill="#C4EEEF"/><path d="M1094 778h16v1h-16z" fill="#BEEDEE"/><path d="M1399 658h16v1h-16z" fill="#BEE9EF"/><path d="M1478 658h15v1h-15z" fill="#BFEBED"/><path d="M1160 778h14v1h-14z" fill="#BFEDEF"/><path d="M209 1389h12v1h-12z" fill="#BDEBED"/><path d="M1055 781h12v1h-12z" fill="#BFECEC"/><path d="M151 1389h11v1h-11z" fill="#BFEBEE"/><path d="M483 1511h10v1h-10z" fill="#BAEAEE"/><path d="M504 1509h9v1h-9z" fill="#C1EBED"/><path d="M1377 659h9v1h-9z" fill="#BBECEE"/><path d="M1028 784h8v1h-8z" fill="#BEECEE"/><path d="M1081 779h8v1h-8z" fill="#C2EFF2"/><path d="M1504 659h8v1h-8z" fill="#BDECEE"/><path d="M523 1508h7v1h-7z" fill="#BEECEE"/><path d="M182 1390h7v1h-7z" fill="#B8EBF0"/><path d="M265 1383h7v1h-7z" fill="#C1EEED"/><path d="M1361 661h7v1h-7z" fill="#C5ECEF"/><path d="M1034 1593h6v1h-6z" fill="#BFE7EB"/><path d="M912 1593h6v1h-6z" fill="#BEE4EA"/><path d="M353 1509h6v1h-6z" fill="#C2ECEC"/><path d="M596 1499h6v1h-6z" fill="#BFECEE"/><path d="M226 1388h6v1h-6z" fill="#C0EDF0"/><path d="M242 1386h6v1h-6z" fill="#C4EAF0"/><path d="M1716 821h1v6h-1z" fill="#BFEBF0"/><path d="M1716 793h1v6h-1z" fill="#BFECF0"/><path d="M1178 779h6v1h-6z" fill="#C3F0F1"/><path d="M1300 668h6v1h-6z" fill="#BCECEE"/><path d="M1346 662h6v1h-6z" fill="#BEECEF"/><path d="M1370 660h6v1h-6z" fill="#C5EEEF"/><path d="M1020 1594h5v1h-5z" fill="#BEE5EA"/><path d="M928 1594h5v1h-5z" fill="#B8E4EA"/><path d="M1054 1590h5v1h-5z" fill="#C0E9EB"/><path d="M893 1590h5v1h-5z" fill="#C1E5E8"/><path d="M531 1507h5v1h-5z" fill="#C4EFF1"/><path d="M553 1505h5v1h-5z" fill="#BFECEF"/><path d="M864 812h5v1h-5z" fill="#C4EBED"/><path d="M907 803h5v1h-5z" fill="#C2EEED"/><path d="M1005 787h5v1h-5z" fill="#BFE8EE"/><path d="M1222 683h5v1h-5z" fill="#C2EDEC"/><path d="M1235 680h5v1h-5z" fill="#C0EDF3"/><path d="M1519 661h5v1h-5z" fill="#C0ECEF"/><path d="m1070 1587 4 1Z" fill="#C3E8EA"/><path d="m877 1587 4 1Z" fill="#BFE3E7"/><path d="m375 1511 4 1Z" fill="#B7E9ED"/><path d="m369 1511 4 1Z" fill="#BFEDEE"/><path d="m364 1510 4 1Z" fill="#C9EFF2"/><path d="m339 1508 4 1Z" fill="#C0EEF0"/><path d="m538 1506 4 1Z" fill="#C1EBEF"/><path d="m330 1506 4 1Z" fill="#C0EBEF"/><path d="m576 1502 4 1Z" fill="#BFEDEE"/><path d="m581 1501 4 1Z" fill="#C0EDEF"/><path d="m616 1496 4 1Z" fill="#C3EDEE"/><path d="m632 1493 4 1Z" fill="#BFEBEF"/><path d="m648 1490 4 1Z" fill="#BDE7EC"/><path d="m286 1380 4 1Z" fill="#BCECEF"/><path d="m302 1377 4 1Z" fill="#C1EDED"/><path d="m379 1361 4 1Z" fill="#C0EBEE"/><path d="m390 1358 4 1Z" fill="#C0EBF1"/><path d="m1459 1176 1 4Zm3-12 1 4Z" fill="#C1E5E8"/><path d="m1465 1150 1 4Z" fill="#C2E7EB"/><path d="m1283 847 1 4Z" fill="#BFECEE"/><path d="M1714 841v3Z" fill="#C1ECF1"/><path d="m1285 838 1 4Z" fill="#BFEFEF"/><path d="m1715 833 1 4Z" fill="#C0E9EF"/><path d="m878 809 4 1Z" fill="#BFEBEF"/><path d="m892 806 4 1Z" fill="#BDEAEA"/><path d="m948 796 4 1Z" fill="#BEEBED"/><path d="m966 793 4 1Z" fill="#BEEBEE"/><path d="m1018 785 4 1Z" fill="#BEEAF2"/><path d="m1715 783 1 4Z" fill="#C1EEF0"/><path d="m1045 782 4 1Z" fill="#BFECF0"/><path d="m1197 781 4 1Z" fill="#C3EDF2"/><path d="m1185 780 4 1Z" fill="#C0ECEF"/><path d="m1076 780 4 1Z" fill="#BBEBEE"/><path d="m1134 705 4 1Z" fill="#BEEBEE"/><path d="m1250 677 4 1Z" fill="#C1EBEE"/><path d="m1266 674 4 1Z" fill="#BFEAEE"/><path d="m1283 671 4 1Z" fill="#BDEBEB"/><path d="m1317 666 4 1Z" fill="#C2EFEF"/><path d="m1322 665 4 1Z" fill="#BEEBED"/><path d="m1342 663 4 1Z" fill="#C2EDEF"/><path d="m1532 662 4 1Z" fill="#BAEDF0"/><path d="m933 1595 3 1Z" fill="#C0E5E8"/><path d="m1043 1592 3 1Z" fill="#C1E7EA"/><path d="m906 1592 3 1Z" fill="#BDE2E5"/><path d="m871 1586 3 1Z" fill="#BFE3E8"/><path d="m864 1584 3 1Z" fill="#C0E3E2"/><path d="m851 1581 3 1Z" fill="#C0E1E5"/><path d="m1130 1571 3 1Z" fill="#C1E7EA"/><path d="m789 1562 3 1Z" fill="#C0D9E0"/><path d="m319 1505 3 1Z" fill="#C0EEF1"/><path d="m312 1503 3 1Z" fill="#BFEBEF"/><path d="m304 1502 3 1Z" fill="#BFECF0"/><path d="m290 1499 3 1Z" fill="#BCEBED"/><path d="m605 1497 3 1Z" fill="#B8E8ED"/><path d="m277 1496 3 1Z" fill="#C4EEEE"/><path d="m621 1495 3 1Z" fill="#C3EDF1"/><path d="m624 1494 3 1Z" fill="#BFEBF0"/><path d="m232 1387 3 1Z" fill="#C0EEF0"/><path d="m256 1385 3 1Z" fill="#BFECF0"/><path d="m259 1384 3 1Z" fill="#BEEBED"/><path d="m280 1381 3 1Z" fill="#C1EEF2"/><path d="m312 1376 3 1Z" fill="#BEEEF2"/><path d="m319 1374 3 1Z" fill="#C2ECF1"/><path d="m328 1373 3 1Z" fill="#C1EBF2"/><path d="m333 1371 3 1Z" fill="#C2EEF1"/><path d="m355 1367 3 1Z" fill="#C0EEED"/><path d="m368 1364 3 1Z" fill="#BEEBEC"/><path d="m374 1362 3 1Z" fill="#BDEBED"/><path d="m402 1355 3 1Z" fill="#BCECEC"/><path d="m424 1349 3 1Z" fill="#C1EDED"/><path d="m462 1339 3 1Z" fill="#C1ECF0"/><path d="m471 1336 3 1Z" fill="#BDEDF0"/><path d="m558 1308 3 1Z" fill="#C2ECEB"/><path d="m704 1255 3 1Z" fill="#BDEBEA"/><path d="m1654 960 2 1-2 1z" fill="#C2EEF1"/><path d="m899 805 3 1Z" fill="#C0EDF0"/><path d="m915 802 3 1Z" fill="#BEE9ED"/><path d="m938 797 3 1Z" fill="#C1E9F0"/><path d="m955 794 3 1Z" fill="#BDE9F0"/><path d="m975 791 3 1Z" fill="#BEEDEE"/><path d="m986 790 3 1Z" fill="#C2EEEE"/><path d="m1229 787 3 1Z" fill="#BFEDF1"/><path d="m1216 784 3 1Z" fill="#BFEDEC"/><path d="m1209 783 3 1Z" fill="#BDEAEF"/><path d="m1042 783 3 1Z" fill="#BFEBED"/><path d="m1071 724 3 1Z" fill="#C2EBED"/><path d="m1124 708 3 1Z" fill="#C1EEEF"/><path d="m1167 696 3 1Z" fill="#BDEDEB"/><path d="m1178 693 3 1Z" fill="#BFECED"/><path d="m1590 674 3 1Z" fill="#C3EDF1"/><path d="m1278 672 3 1Z" fill="#C2EEEF"/><path d="m1293 670 3 1Z" fill="#C1EEF1"/><path d="m1567 668 3 1Z" fill="#C0EEEE"/><path d="m1552 665 3 1Z" fill="#BEEBEF"/><path d="m1336 664 3 1Z" fill="#BEECF0"/><path d="m1512 660 3 1Z" fill="#C4EDF1"/><path d="m1018 1595 2 1Z" fill="#C4EBEC"/><path d="m1047 1591 2 1Z" fill="#BFE7EA"/><path d="m903 1591 2 1Z" fill="#BEE6EA"/><path d="m1062 1589 2 1Z" fill="#C2E7EE"/><path d="m1065 1588 2 1Z" fill="#BDE5EB"/><path d="m885 1588 2 1Z" fill="#BDE3E9"/><path d="m1077 1586 2 1Z" fill="#C3E7EC"/><path d="m869 1585 2 1Z" fill="#BDE1E9"/><path d="m1084 1584 2 1Z" fill="#C2E8E8"/><path d="m857 1583 2 1Z" fill="#BEE4E6"/><path d="m1096 1581 2 1Z" fill="#C3E7F0"/><path d="m1102 1580 2 1Z" fill="#C0EAEA"/><path d="m845 1580 2 1Z" fill="#BCE1E5"/><path d="m1104 1579 2 1Z" fill="#C2E9EB"/><path d="m1106 1578 2 1Z" fill="#C2E8EB"/><path d="m840 1578 2 1Z" fill="#C6E2EA"/><path d="m1112 1577 2 1Z" fill="#C0E9EC"/><path d="m834 1577 2 1Z" fill="#BDDEE3"/><path d="m1114 1576 2 1Z" fill="#C0E9EE"/><path d="m832 1576 2 1Z" fill="#BDDEE4"/><path d="m824 1574 2 1Z" fill="#C2DEE3"/><path d="m814 1571 2 1Z" fill="#C5E5E7"/><path d="m812 1570 2 1Z" fill="#C1DFE3"/><path d="m1138 1568 2 1Z" fill="#BDE6E8"/><path d="m806 1568 2 1Zm-9-3 2 1Z" fill="#C0DBDF"/><path d="m1149 1564 2 1Z" fill="#BFE9EA"/><path d="m1160 1559 2 1Z" fill="#BDE7ED"/><path d="m782 1559 2 1Z" fill="#BED8DD"/><path d="m1167 1556 2 1Z" fill="#C5EBEE"/><path d="m774 1556 2 1Z" fill="#C0DBDF"/><path d="m770 1555 2 1Z" fill="#C2DADF"/><path d="m1174 1553 2 1Z" fill="#C4ECF1"/><path d="m1177 1552 2 1Z" fill="#C0E6E8"/><path d="m760 1550 2 1Z" fill="#C1DBE1"/><path d="m1191 1545 2 1Z" fill="#BFE8EC"/><path d="m743 1543 2 1Z" fill="#BDDAE5"/><path d="m1200 1540 2 1Z" fill="#C2EAEB"/><path d="m1210 1534 2 1Z" fill="#C1E7EA"/><path d="m711 1527 2 1Z" fill="#C2DCE3"/><path d="m1230 1522 2 1Z" fill="#C0ECEB"/><path d="m695 1518 2 1Z" fill="#C1DADE"/><path d="m690 1515 2 1Z" fill="#C0DADF"/><path d="m497 1510 2 1Z" fill="#C9EFF2"/><path d="m494 1510 2 1Z" fill="#C1EFF0"/><path d="m336 1507 2 1Z" fill="#BFEDF0"/><path d="m317 1504 2 1Z" fill="#C1EDEF"/><path d="m564 1503 2 1Z" fill="#BFEBF0"/><path d="m301 1501 2 1Z" fill="#BDEEEE"/><path d="m586 1500 2 1Z" fill="#BFEDF1"/><path d="m298 1500 2 1Z" fill="#BCEBEF"/><path d="m602 1498 2 1Z" fill="#BEECEF"/><path d="m287 1498 2 1Z" fill="#C0EBED"/><path d="m268 1493 2 1Z" fill="#C2EDF0"/><path d="m639 1492 2 1Z" fill="#BEECED"/><path d="m265 1492 2 1Z" fill="#C1EDEE"/><path d="m259 1490 2 1Z" fill="#C2EEF1"/><path d="m251 1487 2 1Z" fill="#BEEDF3"/><path d="m248 1486 2 1Z" fill="#BDECEC"/><path d="m230 1478 2 1Z" fill="#C0EEF0"/><path d="m296 1379 2 1Z" fill="#C4EDF4"/><path d="m299 1378 2 1Z" fill="#C1EEF1"/><path d="m316 1375 2 1Z" fill="#C3EEF3"/><path d="m331 1372 2 1Z" fill="#C0EDF0"/><path d="m342 1370 2 1Z" fill="#C6ECF2"/><path d="m346 1369 2 1Z" fill="#BDE9EC"/><path d="m348 1368 2 1Z" fill="#BEEDF1"/><path d="m362 1365 2 1Z" fill="#BCEAEE"/><path d="m397 1357 2 1Z" fill="#BFEDF0"/><path d="m399 1356 2 1Z" fill="#C0ECEE"/><path d="m409 1354 2 1Z" fill="#C1EEEE"/><path d="m411 1353 2 1Z" fill="#BFECEF"/><path d="m413 1352 2 1Z" fill="#C1EFF3"/><path d="m422 1350 2 1Z" fill="#C5F0F2"/><path d="m431 1348 2 1Z" fill="#C3F0F2"/><path d="m436 1346 2 1Z" fill="#BFEBF0"/><path d="m446 1343 2 1Z" fill="#C5EDEF"/><path d="m451 1342 2 1Z" fill="#C2EFF3"/><path d="m457 1340 2 1Z" fill="#C1EAEC"/><path d="m467 1337 2 1Z" fill="#C3EEEF"/><path d="m481 1333 2 1Z" fill="#C1E9EE"/><path d="m486 1332 2 1Z" fill="#C1EDEC"/><path d="m488 1331 2 1Z" fill="#BCEBEA"/><path d="m491 1330 2 1Z" fill="#BDE3E6"/><path d="m500 1327 2 1Z" fill="#C2E9E8"/><path d="m510 1324 2 1Z" fill="#BBEBE8"/><path d="m515 1323 2 1Z" fill="#C3E8EE"/><path d="m517 1322 2 1Z" fill="#C0EDEC"/><path d="m519 1321 2 1Z" fill="#BDE8EA"/><path d="m533 1317 2 1Z" fill="#C0E7ED"/><path d="m536 1316 2 1Z" fill="#C2EEEC"/><path d="m542 1314 2 1Z" fill="#C1E8E7"/><path d="m547 1312 2 1Z" fill="#C0E7EC"/><path d="m550 1311 2 1Z" fill="#C7ECEB"/><path d="m568 1305 2 1Z" fill="#C0E9E8"/><path d="m577 1302 2 1Z" fill="#BFE7EA"/><path d="m582 1301 2 1Z" fill="#BEE7EE"/><path d="m590 1298 2 1Z" fill="#C4E8ED"/><path d="m592 1297 2 1Z" fill="#BFECEE"/><path d="m611 1290 2 1Z" fill="#C0E7EC"/><path d="m615 1289 2 1Z" fill="#BEE9EA"/><path d="m623 1286 2 1Z" fill="#BFE8ED"/><path d="m631 1283 2 1Z" fill="#BCEAE9"/><path d="m639 1280 2 1Z" fill="#B9E9EB"/><path d="m671 1268 2 1Z" fill="#BCE7E9"/><path d="m675 1267 2 1Z" fill="#BEEAED"/><path d="m682 1264 2 1Z" fill="#C0E9ED"/><path d="m697 1258 2 1Z" fill="#C3E7EA"/><path d="m712 1252 2 1Z" fill="#C0E6EB"/><path d="m744 1239 2 1Z" fill="#C4EDEC"/><path d="m758 1233 2 1Z" fill="#C5ECED"/><path d="m765 1230 2 1Z" fill="#BCECEF"/><path d="m772 1227 2 1Z" fill="#C1ECED"/><path d="m779 1224 2 1Z" fill="#BEEAF0"/><path d="m784 1222 2 1Z" fill="#C1EDEF"/><path d="m802 1214 2 1Z" fill="#C0EBEE"/><path d="m806 1212 2 1Z" fill="#BEEAE8"/><path d="m815 1208 2 1Z" fill="#C2E9F2"/><path d="m856 1189 2 1Z" fill="#C1EAE9"/><path d="m862 1186 2 1Z" fill="#BEEAEE"/><path d="m885 1174 2 1Z" fill="#C0EBEF"/><path d="m891 1171 2 1Z" fill="#C1EDED"/><path d="m906 1164 2 1Z" fill="#BFEBEC"/><path d="m947 1142 2 1Z" fill="#BFEBF1"/><path d="m963 1133 2 1Z" fill="#BFEDEE"/><path d="m973 1127 2 1Z" fill="#BFECED"/><path d="m1001 1111 2 1Z" fill="#C1F0EA"/><path d="m1024 1097 2 1Z" fill="#C0EEF0"/><path d="m1520 1096 2 1Z" fill="#C0ECEA"/><path d="m1046 1083 2 1Z" fill="#C3EDF1"/><path d="m1115 1036 2 1Z" fill="#C0E9EE"/><path d="m870 811 2 1Z" fill="#BEECF1"/><path d="m873 810 2 1Z" fill="#C3EFEF"/><path d="m885 808 2 1Z" fill="#C0EBED"/><path d="m865 808 2 1Z" fill="#C1EDEC"/><path d="m902 804 2 1Z" fill="#B9EAEE"/><path d="m876 802 2 1Z" fill="#C3EAEE"/><path d="m918 801 2 1Z" fill="#BAEBF0"/><path d="m922 800 2 1Z" fill="#C1EDEE"/><path d="m932 799 2 1Z" fill="#BFEBEC"/><path d="m889 796 2 1Z" fill="#BFECEC"/><path d="m1248 793 2 1Z" fill="#BDEAF0"/><path d="m971 792 2 1Z" fill="#C1EDF0"/><path d="m1244 791 2 1Z" fill="#C1EEF6"/><path d="m1239 790 2 1Z" fill="#C4EDEF"/><path d="m902 790 2 1Z" fill="#BEEBEE"/><path d="m992 789 2 1Z" fill="#BEECEB"/><path d="m995 788 2 1Z" fill="#BEE9EF"/><path d="m1015 786 2 1Z" fill="#C2ECEF"/><path d="m925 780 2 1Z" fill="#C2EEF1"/><path d="m932 777 2 1Z" fill="#C0ECEE"/><path d="m939 774 2 1Z" fill="#BEEBEE"/><path d="m946 771 2 1Z" fill="#C1EAEC"/><path d="m964 764 2 1Z" fill="#C1ECEF"/><path d="m966 763 2 1Z" fill="#C1EDF0"/><path d="m968 762 2 1Z" fill="#BDEDEF"/><path d="m971 761 2 1Z" fill="#C4ECEE"/><path d="m978 758 2 1Z" fill="#C4EEF0"/><path d="m986 755 2 1Z" fill="#C0E9EB"/><path d="m1014 745 2 1Z" fill="#BCECF0"/><path d="m1017 743 2 1Z" fill="#C3EDED"/><path d="m1021 742 2 1Z" fill="#C1EFF3"/><path d="m1024 741 2 1Z" fill="#BEEAEF"/><path d="m1030 739 2 1Z" fill="#C4EAEC"/><path d="m1034 737 2 1Z" fill="#C0ECED"/><path d="m1038 736 2 1Z" fill="#C0ECEF"/><path d="m1047 733 2 1Z" fill="#C3EAF0"/><path d="m1055 730 2 1Z" fill="#BFE9F2"/><path d="m1060 728 2 1Z" fill="#BFEAF1"/><path d="m1069 725 2 1Z" fill="#BFECEF"/><path d="m1077 723 2 1Z" fill="#BFECF0"/><path d="m1081 721 2 1Z" fill="#C4EDEE"/><path d="m1088 719 2 1Z" fill="#BFEEEF"/><path d="m1090 718 2 1Z" fill="#C0ECEE"/><path d="m1096 717 2 1Z" fill="#C2EDEC"/><path d="m1100 715 2 1Z" fill="#BDEEF0"/><path d="m1105 714 2 1Z" fill="#C5EEF1"/><path d="m1110 712 2 1Z" fill="#C0EDF1"/><path d="m1115 711 2 1Z" fill="#C2EEEE"/><path d="m1118 710 2 1Z" fill="#C3EBF3"/><path d="m1120 709 2 1Z" fill="#C3EEF2"/><path d="m1141 703 2 1Z" fill="#C2ECF1"/><path d="m1655 702 2 1Z" fill="#C4EDF3"/><path d="m1145 702 2 1Z" fill="#C3EDF2"/><path d="m1156 699 2 1Z" fill="#C3EDF0"/><path d="m1162 698 2 1Z" fill="#C2EDF0"/><path d="m1164 697 2 1Z" fill="#C3EBEE"/><path d="m1191 690 2 1Z" fill="#C1EDF1"/><path d="m1630 689 2 1Z" fill="#BDEBEE"/><path d="m1198 689 2 1Z" fill="#BFEEF1"/><path d="m1201 688 2 1Z" fill="#C2EBED"/><path d="m1203 687 2 1Z" fill="#C2EEEE"/><path d="m1624 686 2 1Z" fill="#C5EFF4"/><path d="m1210 686 2 1Z" fill="#C0EEEF"/><path d="m1214 685 2 1Z" fill="#C4EFEC"/><path d="m1217 684 2 1Z" fill="#BFECEE"/><path d="m1616 683 2 1Z" fill="#C1F0F1"/><path d="m1612 681 2 1Z" fill="#C0EDED"/><path d="m1609 680 2 1Z" fill="#C3EEF3"/><path d="m1244 679 2 1Z" fill="#C2EDF1"/><path d="m1603 678 2 1Z" fill="#C0EEF1"/><path d="m1246 678 2 1Z" fill="#BCEBEE"/><path d="m1599 677 2 1Z" fill="#BEE9ED"/><path d="m1259 676 2 1Z" fill="#C1EDF2"/><path d="m1584 673 2 1Z" fill="#BCEBF0"/><path d="m1276 673 2 1Z" fill="#BEECF0"/><path d="m1580 671 2 1Z" fill="#C1ECEC"/><path d="m1573 670 2 1Z" fill="#C0ECF3"/><path d="m1570 669 2 1Z" fill="#BFECF0"/><path d="m1298 669 2 1Z" fill="#BDEAF0"/><path d="m1558 667 2 1Z" fill="#BCEBF0"/><path d="m1314 667 2 1Z" fill="#BEEBEF"/><path d="m1542 664 2 1Z" fill="#B9E9EF"/><path d="m1537 663 2 1Z" fill="#C3EBF1"/></svg>