<svg xmlns="http://www.w3.org/2000/svg" width="14" height="14.221" viewBox="0 0 14 14.221"><path d="M11.379 5.197h0.093q0.217 0 0.436 0.018l0.047 0.004a1.75 1.75 0 0 1 0.151 0.021l0.074 0.011q0.091 0.014 0.18 0.032l0.024 0.005c0.122 0.026 0.247 0.06 0.361 0.109l0.087 0.035a1.75 1.75 0 0 1 0.109 0.056q0.058 0.033 0.121 0.063v0.016l0.014 0.003c0.021 0.005 0.032 0.016 0.049 0.028l0.018 0.014 0.018 0.014 0.018 0.014c0.054 0.042 0.054 0.042 0.072 0.061v0.016l0.024 0.009v0.016l0.024 0.009c0.032 0.035 0.032 0.035 0.032 0.054h0.016l0.023 0.032 0.012 0.019 0.011 0.019 0.018 0.025a0.263 0.263 0 0 1 0.03 0.061l0.016 0.024q0.032 0.065 0.049 0.135l0.005 0.023a0.875 0.875 0 0 1 0.019 0.224v0.121c-0.002 0.107 -0.002 0.107 -0.017 0.122l-0.011 0.077a0.263 0.263 0 0 1 -0.021 0.066l-0.016 0.053a1.75 1.75 0 0 1 -0.039 0.109l-0.038 0.098 -0.033 0.063 -0.017 0.038 -0.009 0.018 -0.009 0.014h-0.016l-0.007 0.021a0.875 0.875 0 0 1 -0.033 0.074l-0.01 0.018 -0.004 0.012h-0.016l-0.007 0.021a0.263 0.263 0 0 1 -0.033 0.066h-0.016l-0.003 0.014a0.175 0.175 0 0 1 -0.025 0.047l-0.011 0.017 -0.012 0.017 -0.024 0.033 -0.011 0.016c-0.01 0.012 -0.01 0.012 -0.017 0.028h-0.016l-0.007 0.014 -0.033 0.056 -0.012 0.019 -0.009 0.016h-0.016l-0.005 0.012a0.875 0.875 0 0 1 -0.049 0.07l-0.01 0.014 -0.021 0.026 -0.026 0.035 -0.016 0.014h-0.016l-0.005 0.012a0.263 0.263 0 0 1 -0.054 0.067c-0.028 0.03 -0.028 0.03 -0.051 0.061h-0.016l-0.016 0.032h-0.016v0.016h-0.016l-0.005 0.014a0.175 0.175 0 0 1 -0.037 0.045q-0.024 0.023 -0.044 0.047a0.438 0.438 0 0 1 -0.065 0.061l-0.038 0.039a0.175 0.175 0 0 1 -0.049 0.045h-0.016l-0.009 0.024h-0.016l-0.009 0.024h-0.016l-0.009 0.024 -0.03 0.026 -0.017 0.014 -0.018 0.016 -0.023 0.019c-0.017 0.012 -0.017 0.012 -0.032 0.012l-0.005 0.014c-0.012 0.023 -0.028 0.033 -0.047 0.049a1.75 1.75 0 0 0 -0.08 0.072l-0.042 0.035 -0.077 0.065 -0.081 0.066 -0.046 0.037a4.375 4.375 0 0 1 -0.192 0.147l-0.052 0.037 -0.014 0.011a0.175 0.175 0 0 0 -0.04 0.046l-0.003 0.018 -0.003 0.021 -0.003 0.023 -0.011 0.051 -0.021 0.098 -0.004 0.019 -0.009 0.039a1.75 1.75 0 0 1 -0.026 0.1l-0.011 0.045 -0.023 0.082 -0.012 0.045 -0.037 0.126 -0.012 0.045q-0.017 0.052 -0.039 0.1l-0.033 0.094c-0.039 0.121 -0.039 0.121 -0.063 0.172l-0.026 0.063q-0.049 0.117 -0.107 0.228l-0.04 0.086 -0.009 0.018 -0.016 0.033a0.875 0.875 0 0 1 -0.053 0.089q-0.016 0.023 -0.026 0.047c-0.046 0.096 -0.11 0.186 -0.171 0.275l-0.025 0.038q-0.081 0.116 -0.168 0.228l-0.028 0.04h-0.016l-0.007 0.014 -0.024 0.04h-0.016l-0.005 0.014a0.263 0.263 0 0 1 -0.045 0.058l-0.049 0.058 -0.011 0.012h-0.016l-0.005 0.012q-0.024 0.038 -0.059 0.068l-0.012 0.012c-0.032 0.032 -0.032 0.032 -0.051 0.032l-0.007 0.014a0.175 0.175 0 0 1 -0.033 0.042l-0.014 0.014 -0.016 0.014 -0.016 0.016c-0.119 0.109 -0.119 0.109 -0.158 0.122l-0.009 0.024 -0.031 0.024 -0.019 0.014 -0.021 0.014 -0.021 0.016 -0.04 0.03 -0.046 0.033c-0.088 0.067 -0.088 0.067 -0.114 0.067v0.016l-0.052 0.032 -0.017 0.01 -0.051 0.03 -0.014 0.009 -0.081 0.046 -0.045 0.026a1.75 1.75 0 0 1 -0.193 0.096l-0.068 0.033a1.75 1.75 0 0 1 -0.123 0.049l-0.08 0.033a1.75 1.75 0 0 1 -0.208 0.072l-0.047 0.016q-0.084 0.028 -0.168 0.044l-0.021 0.004 -0.018 0.003c-0.019 0.004 -0.019 0.004 -0.042 0.012a0.438 0.438 0 0 1 -0.079 0.016l-0.091 0.016q-0.061 0.014 -0.123 0.021l-0.024 0.003a1.75 1.75 0 0 1 -0.168 0.014 0.875 0.875 0 0 0 -0.084 0.01c-0.333 0.033 -0.333 0.033 -0.472 -0.004a0.875 0.875 0 0 0 -0.07 -0.009l-0.031 -0.002 -0.047 -0.003 -0.046 -0.003 -0.028 -0.002c-0.024 -0.004 -0.024 -0.004 -0.039 -0.012l-0.063 -0.007a1.75 1.75 0 0 1 -0.151 -0.021l-0.017 -0.003 -0.072 -0.017q-0.063 -0.017 -0.13 -0.028a0.438 0.438 0 0 1 -0.096 -0.028l-0.033 -0.007c-0.073 -0.016 -0.144 -0.04 -0.214 -0.063l-0.025 -0.009 -0.074 -0.024 -0.026 -0.009 -0.025 -0.009 -0.023 -0.007c-0.019 -0.007 -0.019 -0.007 -0.044 -0.023l-0.047 -0.016 -0.065 -0.026 -0.112 -0.045 -0.091 -0.042 -0.072 -0.033a2.625 2.625 0 0 1 -0.261 -0.138l-0.06 -0.031a1.4 1.4 0 0 1 -0.205 -0.124l-0.017 -0.011 -0.04 -0.03a0.21 0.21 0 0 0 -0.171 -0.044l-0.073 0.017q-0.046 0.011 -0.095 0.016l-0.103 0.016 -0.191 0.028 -0.019 0.003 -0.018 0.003 -0.032 0.007q-0.025 0.005 -0.052 0.009l-0.021 0.002 -0.021 0.002 -0.042 0.004 -0.018 0.002 -0.038 0.005 -0.066 0.009 -0.026 0.002 -0.054 0.004 -0.026 0.002 -0.024 0.002c-0.021 0.002 -0.021 0.002 -0.04 0.005q-0.044 0.007 -0.088 0.009l-0.039 0.002 -0.061 0.003 -0.06 0.003 -0.018 0.002a0.263 0.263 0 0 0 -0.07 0.011l-0.07 0.002h-0.62q-0.038 0.002 -0.073 -0.009l-0.049 -0.003 -0.03 -0.002 -0.016 -0.002a2.625 2.625 0 0 1 -0.333 -0.038l-0.11 -0.016a0.875 0.875 0 0 1 -0.068 -0.019l-0.04 -0.007a1.75 1.75 0 0 1 -0.142 -0.032l-0.018 -0.005c-0.075 -0.021 -0.15 -0.04 -0.22 -0.073l-0.091 -0.033c-0.018 -0.007 -0.018 -0.007 -0.035 -0.023l-0.035 -0.014a1.137 1.137 0 0 1 -0.345 -0.224v-0.016l-0.014 -0.005c-0.112 -0.063 -0.182 -0.213 -0.231 -0.326l-0.011 -0.025c-0.018 -0.049 -0.018 -0.049 -0.018 -0.075h0.079l0.102 0.004q0.075 0.004 0.15 0.002l0.028 -0.002 0.231 -0.012 0.017 -0.002 0.047 -0.003 0.028 -0.002c0.021 -0.002 0.021 -0.002 0.038 -0.01l0.037 -0.004 0.023 -0.002 0.046 -0.004a0.525 0.525 0 0 0 0.122 -0.019l0.065 -0.007a0.525 0.525 0 0 0 0.102 -0.019l0.086 -0.012c0.025 -0.003 0.025 -0.003 0.047 -0.011l0.065 -0.004a0.263 0.263 0 0 0 0.061 -0.018l0.042 -0.007a1.75 1.75 0 0 0 0.115 -0.024l0.143 -0.033 0.122 -0.026 0.023 -0.005 0.108 -0.03 0.031 -0.007q0.07 -0.016 0.142 -0.037l0.094 -0.025 0.273 -0.075 0.04 -0.012 0.149 -0.047 0.018 -0.005 0.016 -0.005 0.049 -0.012a1.75 1.75 0 0 0 0.108 -0.032l0.059 -0.018 0.061 -0.018q0.086 -0.025 0.171 -0.058 0.101 -0.037 0.203 -0.065a1.75 1.75 0 0 0 0.095 -0.038l0.073 -0.025a1.75 1.75 0 0 0 0.129 -0.045l0.128 -0.046q0.093 -0.032 0.182 -0.068l0.122 -0.045a1.75 1.75 0 0 0 0.105 -0.04l0.079 -0.028a1.75 1.75 0 0 0 0.117 -0.049q0.065 -0.03 0.131 -0.052a1.75 1.75 0 0 0 0.166 -0.07q0.038 -0.017 0.077 -0.031a1.75 1.75 0 0 0 0.163 -0.07l0.063 -0.025a1.75 1.75 0 0 0 0.102 -0.045l0.065 -0.028a1.75 1.75 0 0 0 0.13 -0.061 1.75 1.75 0 0 1 0.108 -0.047q0.042 -0.018 0.08 -0.038l0.175 -0.087 0.016 -0.007c0.023 -0.01 0.038 -0.017 0.061 -0.017v-0.016l0.024 -0.01q0.046 -0.019 0.089 -0.042l0.017 -0.009 0.137 -0.072 0.107 -0.054 0.123 -0.067q0.063 -0.037 0.128 -0.067l0.063 -0.037 0.075 -0.046 0.019 -0.012q0.051 -0.031 0.103 -0.059l0.145 -0.082 0.045 -0.026a2.625 2.625 0 0 0 0.198 -0.123l0.019 -0.012c0.016 -0.005 0.016 -0.005 0.031 -0.005v-0.016c0.074 -0.042 0.074 -0.042 0.11 -0.054v-0.016c0.012 -0.01 0.012 -0.01 0.032 -0.019q0.165 -0.098 0.317 -0.217l0.04 -0.026q0.042 -0.025 0.079 -0.056l0.033 -0.025 0.017 -0.012 0.052 -0.038q0.073 -0.051 0.138 -0.11l0.065 -0.052 0.119 -0.096 0.08 -0.066a1.75 1.75 0 0 0 0.088 -0.082c0.012 -0.011 0.012 -0.011 0.03 -0.011l0.009 -0.024 0.03 -0.026 0.052 -0.047c0.012 -0.012 0.012 -0.012 0.028 -0.012l0.007 -0.014a0.175 0.175 0 0 1 0.035 -0.045l0.016 -0.014 0.016 -0.016 0.031 -0.03 0.014 -0.012c0.011 -0.011 0.011 -0.011 0.018 -0.026h0.016l0.007 -0.014a0.263 0.263 0 0 1 0.033 -0.047l0.012 -0.014c0.009 -0.012 0.009 -0.012 0.025 -0.012l0.007 -0.014a0.263 0.263 0 0 1 0.03 -0.044l0.012 -0.014 0.012 -0.016c0.061 -0.074 0.061 -0.074 0.114 -0.157h0.016l0.007 -0.018 0.03 -0.056c0.087 -0.143 0.189 -0.336 0.154 -0.508l-0.026 -0.073 -0.007 -0.023 -0.009 -0.017 -0.024 -0.009 -0.032 -0.039 -0.016 -0.009v-0.016l-0.017 -0.005a0.438 0.438 0 0 1 -0.068 -0.037 0.7 0.7 0 0 0 -0.187 -0.075l-0.051 -0.016 -0.068 -0.016 -0.089 -0.017a1.75 1.75 0 0 0 -0.108 -0.014c-0.018 -0.003 -0.018 -0.003 -0.033 -0.01l-0.117 -0.009 -0.018 -0.002a7 7 0 0 0 -0.676 0.002l-0.023 0.002 -0.063 0.003 -0.018 0.002a0.438 0.438 0 0 0 -0.079 0.011l-0.051 0.004 -0.03 0.002 -0.061 0.004a1.75 1.75 0 0 0 -0.163 0.019l-0.077 0.007a1.75 1.75 0 0 0 -0.114 0.016l-0.073 0.007a0.875 0.875 0 0 0 -0.095 0.016q-0.051 0.011 -0.103 0.016l-0.157 0.025 -0.056 0.01 -0.184 0.033 -0.161 0.032 -0.023 0.004 -0.044 0.009 -0.094 0.021a0.088 0.088 0 0 1 -0.067 -0.002c0.018 -0.018 0.033 -0.024 0.056 -0.035l0.079 -0.037 0.07 -0.031 0.077 -0.035a1.75 1.75 0 0 1 0.236 -0.101q0.037 -0.014 0.07 -0.03l0.103 -0.045 0.066 -0.03a0.263 0.263 0 0 1 0.087 -0.021v-0.016l0.023 -0.007q0.084 -0.026 0.166 -0.061 0.053 -0.021 0.108 -0.04l0.066 -0.025q0.056 -0.021 0.116 -0.039l0.089 -0.032 0.031 -0.011 0.016 -0.005c0.065 -0.024 0.129 -0.049 0.196 -0.065l0.06 -0.021 0.091 -0.028 0.074 -0.021 0.087 -0.024 0.068 -0.021 0.065 -0.019 0.018 -0.005 0.123 -0.032 0.08 -0.023q0.052 -0.016 0.105 -0.026l0.079 -0.019a1.75 1.75 0 0 1 0.138 -0.032c0.052 -0.01 0.052 -0.01 0.102 -0.024q0.046 -0.014 0.095 -0.019l0.117 -0.025q0.154 -0.035 0.308 -0.058l0.061 -0.01 0.042 -0.005 0.019 -0.003 0.018 -0.003 0.032 -0.007q0.045 -0.009 0.089 -0.009l0.061 -0.011q0.061 -0.012 0.122 -0.017l0.044 -0.004 0.019 -0.002 0.042 -0.005q0.038 -0.005 0.077 -0.009l0.03 -0.002 0.031 -0.002c0.077 -0.004 0.077 -0.004 0.152 -0.011 0.133 -0.014 0.268 -0.012 0.402 -0.012" fill="#1EB8C2"/><path d="M6.109 1.631h0.208q0.152 0 0.305 0.016l0.073 0.005a1.75 1.75 0 0 1 0.11 0.016l0.08 0.011a2.625 2.625 0 0 1 0.219 0.038q0.093 0.018 0.182 0.042l0.031 0.009q0.227 0.059 0.444 0.144l0.075 0.028a1.75 1.75 0 0 1 0.096 0.042q0.031 0.014 0.065 0.025a1.75 1.75 0 0 1 0.138 0.063l0.061 0.03q0.047 0.019 0.093 0.045l0.019 0.011 0.131 0.074 0.108 0.06 0.016 0.01c0.04 0.014 0.095 -0.005 0.137 -0.014l0.018 -0.004 0.059 -0.011 0.058 -0.011 0.019 -0.004 0.019 -0.004 0.073 -0.014 0.224 -0.04 0.031 -0.005a5.25 5.25 0 0 1 0.243 -0.035l0.059 -0.009a7 7 0 0 1 0.71 -0.068q0.222 -0.014 0.444 -0.014h0.025q0.238 0 0.472 0.019l0.054 0.004a1.75 1.75 0 0 1 0.163 0.021l0.077 0.011q0.098 0.011 0.192 0.032l0.028 0.005q0.175 0.037 0.343 0.096l0.03 0.01a1.75 1.75 0 0 1 0.138 0.058l0.051 0.025q0.172 0.084 0.318 0.207l0.012 0.01a0.84 0.84 0 0 1 0.264 0.389l0.009 0.026c0.005 0.025 0.005 0.025 -0.003 0.049l-0.021 -0.002a4.638 4.638 0 0 0 -0.878 0.04l-0.024 0.003 -0.109 0.017 -0.054 0.009 -0.054 0.009 -0.129 0.024 -0.026 0.005 -0.088 0.018 -0.031 0.005 -0.137 0.03 -0.06 0.012a2.625 2.625 0 0 0 -0.235 0.054q-0.07 0.019 -0.138 0.035l-0.021 0.005 -0.04 0.01q-0.088 0.019 -0.175 0.049 -0.067 0.023 -0.138 0.039l-0.065 0.019 -0.053 0.016a1.75 1.75 0 0 0 -0.119 0.032l-0.021 0.005 -0.121 0.039 -0.105 0.032a2.625 2.625 0 0 0 -0.187 0.061 5.25 5.25 0 0 1 -0.312 0.102l-0.021 0.007q-0.07 0.024 -0.14 0.052 -0.084 0.032 -0.171 0.054a0.875 0.875 0 0 0 -0.081 0.032l-0.073 0.026 -0.117 0.045q-0.056 0.023 -0.116 0.04a0.263 0.263 0 0 0 -0.065 0.03l-0.047 0.016 -0.067 0.026 -0.038 0.016 -0.018 0.007 -0.152 0.058c-0.072 0.026 -0.072 0.026 -0.14 0.059q-0.033 0.016 -0.072 0.026a1.75 1.75 0 0 0 -0.115 0.051q-0.047 0.021 -0.096 0.039l-0.095 0.042c-0.014 0.012 -0.014 0.012 -0.038 0.012v0.016l-0.019 0.007a1.75 1.75 0 0 0 -0.143 0.061l-0.059 0.025a0.875 0.875 0 0 0 -0.074 0.035 0.875 0.875 0 0 1 -0.073 0.035q-0.056 0.023 -0.108 0.049l-0.101 0.049 -0.019 0.01 -0.094 0.044a1.75 1.75 0 0 0 -0.18 0.094l-0.089 0.046q-0.249 0.126 -0.488 0.263l-0.016 0.009 -0.119 0.068 -0.074 0.042 -0.024 0.014 -0.049 0.028q-0.063 0.037 -0.123 0.08l-0.033 0.018q-0.065 0.037 -0.124 0.075l-0.026 0.017q-0.124 0.079 -0.247 0.164l-0.075 0.046q-0.042 0.028 -0.081 0.059l-0.105 0.077 -0.019 0.014 -0.018 0.012 -0.016 0.011c-0.011 0.014 -0.011 0.014 -0.026 0.014v0.016l-0.054 0.04 -0.016 0.011c-0.039 0.026 -0.039 0.026 -0.056 0.026v0.016l-0.045 0.035 -0.072 0.054c-0.018 0.014 -0.018 0.014 -0.035 0.014v0.016l-0.038 0.032 -0.021 0.017c-0.019 0.014 -0.019 0.014 -0.035 0.014v0.016l-0.035 0.028a1.75 1.75 0 0 0 -0.108 0.093c-0.016 0.014 -0.016 0.014 -0.031 0.014v0.016l-0.03 0.026 -0.056 0.052c-0.017 0.017 -0.017 0.017 -0.033 0.017l-0.005 0.014c-0.012 0.023 -0.028 0.035 -0.047 0.052a0.875 0.875 0 0 0 -0.096 0.101l-0.03 0.033 -0.012 0.016 -0.037 0.038h-0.016l-0.005 0.012a0.438 0.438 0 0 1 -0.045 0.06 2.1 2.1 0 0 0 -0.186 0.249l-0.009 0.014a1.4 1.4 0 0 0 -0.11 0.215l-0.011 0.03c-0.038 0.108 -0.066 0.217 -0.021 0.326 0.059 0.112 0.163 0.168 0.276 0.213l0.019 0.009a1.75 1.75 0 0 0 0.186 0.054l0.016 0.004q0.089 0.021 0.18 0.026 0.032 0.003 0.066 0.01c0.289 0.049 0.646 0.039 0.935 -0.004q0.07 -0.009 0.14 -0.012 0.103 -0.007 0.206 -0.019l0.096 -0.01c0.018 -0.002 0.018 -0.002 0.04 -0.01l0.065 -0.007q0.126 -0.014 0.252 -0.037l0.096 -0.017 0.033 -0.005 0.07 -0.011q0.221 -0.038 0.441 -0.086l0.049 -0.01 0.026 -0.005q0.031 -0.005 0.063 -0.004c-0.009 0.024 -0.009 0.024 -0.021 0.032l-0.017 0.007 -0.018 0.009 -0.019 0.009 -0.039 0.017 -0.019 0.009 -0.06 0.03a1.75 1.75 0 0 1 -0.175 0.077 0.875 0.875 0 0 0 -0.086 0.039q-0.058 0.031 -0.119 0.049l-0.088 0.038 -0.126 0.052q-0.049 0.018 -0.095 0.04a0.875 0.875 0 0 1 -0.081 0.031l-0.056 0.021 -0.32 0.117 -0.065 0.023q-0.126 0.045 -0.255 0.086l-0.084 0.026 -0.087 0.026 -0.103 0.031a5.25 5.25 0 0 1 -0.348 0.098l-0.137 0.038a2.625 2.625 0 0 1 -0.224 0.054l-0.025 0.005 -0.112 0.024 -0.119 0.026a1.75 1.75 0 0 1 -0.182 0.035l-0.077 0.014a7 7 0 0 1 -0.873 0.115l-0.042 0.004q-0.13 0.011 -0.263 0.011h-0.026a4.725 4.725 0 0 1 -0.961 -0.053l-0.023 -0.004c-0.306 -0.059 -0.306 -0.059 -0.42 -0.105l-0.073 -0.024a1.313 1.313 0 0 1 -0.502 -0.277v-0.016l-0.014 -0.005a0.7 0.7 0 0 1 -0.205 -0.259l-0.017 -0.03a0.84 0.84 0 0 1 -0.088 -0.417v-0.018q-0.003 -0.15 0.033 -0.292l0.007 -0.026 0.017 -0.06 0.005 -0.017q0.038 -0.122 0.096 -0.234l0.016 -0.035c0.067 -0.164 0.178 -0.313 0.278 -0.458 0.014 -0.019 0.014 -0.019 0.023 -0.037h0.016l0.009 -0.032h0.016l0.005 -0.012q0.017 -0.032 0.039 -0.061l0.016 -0.023q0.025 -0.032 0.056 -0.061l0.037 -0.045 0.018 -0.023c0.017 -0.019 0.017 -0.019 0.031 -0.044h0.016l0.007 -0.014a0.175 0.175 0 0 1 0.035 -0.044l0.054 -0.058a1.75 1.75 0 0 1 0.098 -0.102l0.019 -0.019 0.039 -0.039 0.06 -0.06 0.039 -0.038 0.018 -0.018q0.047 -0.047 0.1 -0.093c0.014 -0.011 0.014 -0.011 0.026 -0.025 0.011 -0.011 0.011 -0.011 0.028 -0.011l0.009 -0.024h0.016v-0.016l0.039 -0.032 0.105 -0.089c0.012 -0.012 0.012 -0.012 0.03 -0.012v-0.016c0.035 -0.032 0.035 -0.032 0.054 -0.032v-0.016l0.04 -0.03a0.525 0.525 0 0 0 0.086 -0.073l0.051 -0.039 0.014 -0.01 0.039 -0.03 0.019 -0.016 0.042 -0.032 0.017 -0.012c0.016 -0.011 0.016 -0.011 0.031 -0.011v-0.016l0.065 -0.046a0.14 0.14 0 0 0 0.066 -0.102l0.005 -0.023 0.007 -0.026q0.042 -0.192 0.102 -0.378l0.005 -0.017 0.025 -0.074 0.019 -0.06a1.75 1.75 0 0 1 0.053 -0.143l0.024 -0.059 0.031 -0.079 0.005 -0.016 0.04 -0.098h0.016l0.002 -0.018a0.438 0.438 0 0 1 0.046 -0.108l0.023 -0.044q0.07 -0.143 0.15 -0.28l0.009 -0.014 0.056 -0.082 0.028 -0.046q0.035 -0.06 0.075 -0.116l0.03 -0.042 0.014 -0.019 0.031 -0.046 0.012 -0.019h0.016l0.005 -0.017a0.263 0.263 0 0 1 0.052 -0.072l0.024 -0.028 0.011 -0.014 0.039 -0.049q0.046 -0.058 0.098 -0.114l0.021 -0.023a4.375 4.375 0 0 1 0.151 -0.158l0.019 -0.019q0.056 -0.056 0.117 -0.108l0.06 -0.054c0.044 -0.039 0.044 -0.039 0.063 -0.039v-0.016l0.04 -0.032 0.012 -0.01 0.042 -0.03 0.014 -0.01 0.084 -0.06 0.033 -0.024c0.182 -0.129 0.382 -0.252 0.591 -0.332l0.061 -0.026a1.75 1.75 0 0 1 0.128 -0.049l0.067 -0.025q0.06 -0.024 0.122 -0.044l0.023 -0.007a2.625 2.625 0 0 1 0.354 -0.093l0.03 -0.005 0.094 -0.019 0.018 -0.003a2.625 2.625 0 0 1 0.306 -0.031l0.03 -0.002 0.026 -0.002c0.026 -0.003 0.046 -0.011 0.073 -0.011" fill="#F16031"/><path d="M11.555 8.984a0.525 0.525 0 0 1 -0.019 0.157l-0.011 0.056 -0.004 0.019 -0.009 0.039a1.75 1.75 0 0 1 -0.026 0.1l-0.011 0.045 -0.023 0.082 -0.012 0.045 -0.037 0.126 -0.012 0.045q-0.018 0.052 -0.039 0.1l-0.033 0.094c-0.039 0.121 -0.039 0.121 -0.063 0.172l-0.026 0.063q-0.049 0.117 -0.107 0.228l-0.04 0.086 -0.009 0.018 -0.016 0.033a0.875 0.875 0 0 1 -0.053 0.089q-0.016 0.023 -0.026 0.047c-0.046 0.096 -0.11 0.186 -0.171 0.275l-0.025 0.038q-0.081 0.116 -0.168 0.228l-0.028 0.04h-0.016l-0.007 0.014 -0.025 0.039h-0.016l-0.005 0.014a0.263 0.263 0 0 1 -0.045 0.058l-0.049 0.058 -0.011 0.012h-0.016l-0.005 0.012q-0.024 0.038 -0.059 0.068l-0.012 0.012c-0.032 0.032 -0.032 0.032 -0.051 0.032l-0.007 0.014a0.175 0.175 0 0 1 -0.033 0.042l-0.014 0.014 -0.016 0.014 -0.016 0.016c-0.119 0.109 -0.119 0.109 -0.158 0.122l-0.009 0.024 -0.031 0.024 -0.019 0.014 -0.021 0.014 -0.021 0.016 -0.04 0.03 -0.046 0.033c-0.088 0.067 -0.088 0.067 -0.114 0.067v0.016l-0.052 0.032 -0.017 0.01 -0.051 0.03 -0.014 0.009 -0.081 0.046 -0.045 0.026a1.75 1.75 0 0 1 -0.193 0.096l-0.068 0.033a1.75 1.75 0 0 1 -0.123 0.049l-0.08 0.033a1.75 1.75 0 0 1 -0.208 0.072l-0.047 0.016q-0.084 0.028 -0.168 0.044l-0.021 0.004 -0.018 0.003c-0.019 0.004 -0.019 0.004 -0.042 0.012a0.438 0.438 0 0 1 -0.079 0.016l-0.091 0.016q-0.061 0.014 -0.123 0.021l-0.024 0.003a1.75 1.75 0 0 1 -0.168 0.014 0.875 0.875 0 0 0 -0.084 0.01c-0.333 0.033 -0.333 0.033 -0.472 -0.004a0.875 0.875 0 0 0 -0.07 -0.009l-0.031 -0.002 -0.047 -0.003 -0.046 -0.003 -0.028 -0.002c-0.024 -0.004 -0.024 -0.004 -0.039 -0.012l-0.063 -0.007a1.75 1.75 0 0 1 -0.151 -0.021l-0.017 -0.003 -0.072 -0.017q-0.063 -0.017 -0.13 -0.028a0.438 0.438 0 0 1 -0.096 -0.028l-0.033 -0.007c-0.073 -0.016 -0.144 -0.04 -0.214 -0.063l-0.025 -0.009 -0.073 -0.023 -0.026 -0.009 -0.025 -0.009 -0.023 -0.007c-0.021 -0.009 -0.021 -0.009 -0.045 -0.024l-0.047 -0.016 -0.065 -0.026 -0.112 -0.045 -0.091 -0.042 -0.072 -0.033a2.625 2.625 0 0 1 -0.261 -0.138l-0.06 -0.031a1.75 1.75 0 0 1 -0.219 -0.135q-0.072 -0.047 -0.145 -0.093c0.033 -0.023 0.07 -0.019 0.109 -0.019 0.035 0 0.035 0 0.063 -0.019l0.086 -0.005c0.025 0 0.025 0 0.04 -0.018l0.067 -0.005c0.021 -0.002 0.021 -0.002 0.037 -0.018l0.067 -0.005c0.021 -0.002 0.021 -0.002 0.037 -0.018l0.08 -0.005c0.024 0 0.024 0 0.039 -0.018l0.035 -0.004a0.088 0.088 0 0 0 0.06 -0.019l0.067 -0.011c0.021 -0.003 0.021 -0.003 0.035 -0.019l0.038 -0.004a0.263 0.263 0 0 0 0.08 -0.019l0.028 -0.004c0.025 -0.003 0.025 -0.003 0.042 -0.011a0.175 0.175 0 0 1 0.049 -0.011c0.031 -0.002 0.031 -0.002 0.054 -0.019l0.032 -0.004c0.031 -0.002 0.031 -0.002 0.046 -0.019l0.054 -0.005c0.018 -0.002 0.018 -0.002 0.032 -0.018l0.04 -0.009c0.025 -0.003 0.025 -0.003 0.046 -0.016l0.026 -0.003c0.028 -0.002 0.028 -0.002 0.044 -0.019l0.06 -0.011c0.019 -0.003 0.019 -0.003 0.033 -0.019l0.037 -0.007 0.079 -0.019a0.875 0.875 0 0 1 0.098 -0.024c0.018 -0.003 0.018 -0.003 0.032 -0.019l0.054 -0.009 0.016 -0.016 0.054 -0.009 0.016 -0.016 0.054 -0.009 0.016 -0.016 0.045 -0.011a0.525 0.525 0 0 0 0.108 -0.037l0.074 -0.024c0.073 -0.017 0.073 -0.017 0.136 -0.056l0.054 -0.016 0.009 -0.009 0.026 -0.003c0.028 -0.002 0.028 -0.002 0.044 -0.019l0.039 -0.011q0.07 -0.023 0.138 -0.052l0.098 -0.037 0.102 -0.042 0.039 -0.017c0.016 -0.005 0.016 -0.005 0.024 -0.014l0.026 -0.003c0.028 -0.002 0.028 -0.002 0.044 -0.019l0.047 -0.016 0.046 -0.018 0.032 -0.011a1.75 1.75 0 0 0 0.108 -0.049l0.088 -0.037 0.088 -0.037 0.025 -0.011 0.072 -0.032 0.086 -0.037a0.438 0.438 0 0 0 0.087 -0.046 0.263 0.263 0 0 1 0.061 -0.024l0.054 -0.024 0.026 -0.011 0.059 -0.028a1.75 1.75 0 0 1 0.095 -0.039c0.018 -0.007 0.018 -0.007 0.03 -0.019 0.019 -0.019 0.046 -0.023 0.073 -0.028a0.175 0.175 0 0 0 0.042 -0.031l0.039 -0.016 0.102 -0.047 0.074 -0.035 0.075 -0.042q0.038 -0.023 0.079 -0.042l0.056 -0.028 0.028 -0.014 0.066 -0.037 0.047 -0.024 0.024 -0.011 0.047 -0.024 0.047 -0.028a1.75 1.75 0 0 1 0.093 -0.051l0.065 -0.037 0.073 -0.04q0.045 -0.023 0.086 -0.052c0.017 -0.011 0.017 -0.011 0.037 -0.018q0.032 -0.014 0.061 -0.033a1.75 1.75 0 0 1 0.087 -0.051 0.438 0.438 0 0 0 0.079 -0.049q0.032 -0.023 0.066 -0.039c0.065 -0.035 0.065 -0.035 0.124 -0.08 0.021 -0.018 0.021 -0.018 0.039 -0.025a0.438 0.438 0 0 0 0.077 -0.044l0.014 -0.01 0.066 -0.044 0.059 -0.037a1.75 1.75 0 0 0 0.109 -0.074l0.04 -0.026a0.263 0.263 0 0 0 0.053 -0.04q0.032 -0.023 0.067 -0.042 0.047 -0.028 0.093 -0.06l0.014 -0.01 0.105 -0.081c0.017 -0.014 0.017 -0.014 0.038 -0.025s0.019 -0.011 0.035 -0.028c0.021 -0.021 0.021 -0.021 0.053 -0.021" fill="#1CA6B1"/><path d="M6.109 1.631h0.208q0.152 0 0.305 0.016l0.073 0.005a1.75 1.75 0 0 1 0.11 0.016l0.08 0.011a2.625 2.625 0 0 1 0.219 0.038q0.093 0.018 0.182 0.042l0.031 0.009q0.227 0.059 0.444 0.144l0.075 0.028a1.75 1.75 0 0 1 0.096 0.042q0.031 0.014 0.065 0.025a1.75 1.75 0 0 1 0.138 0.063l0.061 0.03q0.047 0.019 0.093 0.045l0.019 0.011 0.131 0.074q0.045 0.026 0.091 0.051a0.175 0.175 0 0 1 0.032 0.024l-0.018 0.003 -0.024 0.004 -0.024 0.004c-0.021 0.003 -0.021 0.003 -0.037 0.021l-0.073 0.005c-0.023 0 -0.023 0 -0.038 0.018l-0.038 0.004a0.14 0.14 0 0 0 -0.072 0.019l-0.054 0.005c-0.018 0.002 -0.018 0.002 -0.032 0.018l-0.051 0.009a0.438 0.438 0 0 0 -0.093 0.024l-0.03 0.004c-0.026 0.002 -0.026 0.002 -0.042 0.019l-0.054 0.005c-0.018 0.002 -0.018 0.002 -0.032 0.018l-0.035 0.004a0.14 0.14 0 0 0 -0.068 0.019l-0.054 0.016 -0.009 0.009 -0.053 0.004c-0.019 0.003 -0.019 0.003 -0.04 0.018l-0.061 0.005c-0.019 0.002 -0.019 0.002 -0.033 0.018a0.525 0.525 0 0 1 -0.129 0.035 0.263 0.263 0 0 0 -0.06 0.019l-0.054 0.016 -0.035 0.011 -0.093 0.024c-0.017 0.003 -0.017 0.003 -0.031 0.019l-0.054 0.009 -0.016 0.016 -0.054 0.009 -0.016 0.016 -0.032 0.007a0.263 0.263 0 0 0 -0.072 0.024 1.75 1.75 0 0 1 -0.122 0.044 0.263 0.263 0 0 0 -0.067 0.03l-0.032 0.004c-0.031 0.002 -0.031 0.002 -0.046 0.019l-0.054 0.016c-0.033 0.011 -0.033 0.011 -0.063 0.032l-0.026 0.003c-0.03 0.003 -0.03 0.003 -0.052 0.019l-0.054 0.016 -0.063 0.024 -0.021 0.009 -0.021 0.009 -0.019 0.007c-0.018 0.007 -0.018 0.007 -0.032 0.024q-0.032 0.014 -0.066 0.024l-0.093 0.032 -0.032 0.011 -0.016 0.005 -0.031 0.011a1.75 1.75 0 0 0 -0.151 0.066c-0.018 0.009 -0.018 0.009 -0.046 0.016 -0.026 0.005 -0.026 0.005 -0.042 0.024l-0.047 0.016q-0.06 0.021 -0.119 0.047l-0.081 0.035 -0.088 0.044a0.875 0.875 0 0 1 -0.086 0.032 0.438 0.438 0 0 0 -0.075 0.032l-0.032 0.016 -0.017 0.009 -0.04 0.019c-0.021 0.01 -0.021 0.01 -0.037 0.024 -0.023 0.016 -0.045 0.018 -0.073 0.023 -0.018 0.003 -0.018 0.003 -0.032 0.019l-0.047 0.016 -0.045 0.019 -0.023 0.01c-0.019 0.01 -0.019 0.01 -0.032 0.023 -0.018 0.018 -0.04 0.021 -0.066 0.028a0.175 0.175 0 0 0 -0.04 0.031l-0.054 0.021a0.263 0.263 0 0 0 -0.087 0.051 0.263 0.263 0 0 1 -0.095 0.039l-0.053 0.024 -0.037 0.016c-0.024 0.01 -0.039 0.024 -0.059 0.04a0.14 0.14 0 0 1 -0.095 0.039l-0.033 0.03c-0.017 0.012 -0.031 0.017 -0.051 0.024a0.263 0.263 0 0 0 -0.086 0.059 0.14 0.14 0 0 1 -0.11 0.051 0.14 0.14 0 0 0 -0.07 0.04q-0.025 0.018 -0.053 0.026l-0.024 0.016c-0.024 0.016 -0.024 0.016 -0.042 0.023a0.875 0.875 0 0 0 -0.079 0.04l-0.016 0.009a0.263 0.263 0 0 0 -0.054 0.039l-0.018 0.007c-0.024 0.009 -0.024 0.009 -0.045 0.03a0.14 0.14 0 0 1 -0.063 0.035q-0.039 0.021 -0.075 0.045c-0.016 0.01 -0.016 0.01 -0.035 0.016a0.175 0.175 0 0 0 -0.054 0.04 0.263 0.263 0 0 1 -0.091 0.056 1.75 1.75 0 0 0 -0.091 0.065 0.263 0.263 0 0 1 -0.052 0.031 0.175 0.175 0 0 0 -0.063 0.047l-0.039 0.024 -0.052 0.032 -0.073 0.045c-0.019 0.011 -0.019 0.011 -0.04 0.031a0.263 0.263 0 0 1 -0.056 0.035 0.263 0.263 0 0 0 -0.081 0.059q-0.025 0.021 -0.053 0.037a1.75 1.75 0 0 0 -0.088 0.068 0.875 0.875 0 0 1 -0.061 0.042l-0.024 0.016a0.263 0.263 0 0 1 0.016 -0.095l0.007 -0.032q0.038 -0.177 0.095 -0.346l0.005 -0.017 0.025 -0.074 0.019 -0.06a1.75 1.75 0 0 1 0.053 -0.143l0.024 -0.059 0.031 -0.079 0.005 -0.016 0.042 -0.1h0.016l0.002 -0.018a0.438 0.438 0 0 1 0.046 -0.108l0.023 -0.044q0.07 -0.143 0.15 -0.28l0.009 -0.014 0.056 -0.082 0.028 -0.046q0.035 -0.06 0.075 -0.116l0.03 -0.042 0.014 -0.019 0.031 -0.046 0.012 -0.019h0.016l0.005 -0.017a0.263 0.263 0 0 1 0.052 -0.072l0.024 -0.028 0.011 -0.014 0.039 -0.049q0.046 -0.058 0.098 -0.114l0.021 -0.023a4.375 4.375 0 0 1 0.151 -0.158l0.019 -0.019q0.056 -0.056 0.117 -0.108l0.06 -0.054c0.044 -0.039 0.044 -0.039 0.063 -0.039V2.45l0.04 -0.032 0.012 -0.01 0.042 -0.03 0.014 -0.01 0.084 -0.06 0.033 -0.024c0.182 -0.129 0.382 -0.252 0.591 -0.332l0.061 -0.026a1.75 1.75 0 0 1 0.128 -0.049l0.067 -0.025q0.06 -0.024 0.122 -0.044l0.023 -0.007a2.625 2.625 0 0 1 0.354 -0.093l0.03 -0.005 0.094 -0.019 0.018 -0.003a2.625 2.625 0 0 1 0.306 -0.031l0.03 -0.002 0.026 -0.002c0.026 -0.003 0.046 -0.011 0.073 -0.011" fill="#FE8532"/><path d="M11.191 5.182h0.418v0.009h-0.418z" fill="#C7EEF1"/><path d="m4.938 3.542 0.024 0.009a0.193 0.193 0 0 1 -0.094 0.049c-0.018 0.005 -0.018 0.005 -0.04 0.021 0.009 -0.024 0.014 -0.031 0.037 -0.044l0.024 -0.01c0.028 -0.01 0.028 -0.01 0.051 -0.026" fill="#F97031"/><path d="M7.43 12.589h0.15v0.009h-0.15z" fill="#BBE4E7"/><path d="M3.596 11.925h0.15v0.009H3.596z" fill="#C3EDEE"/><path d="M7.831 12.589h0.135v0.009H7.831z" fill="#BBE5E9"/><path d="M3.028 11.925h0.126v0.009h-0.126z" fill="#C4EEEF"/><path d="M8.628 6.136h0.126v0.009h-0.126z" fill="#BEEDEE"/><path d="M11.035 5.19h0.126v0.009h-0.126z" fill="#BEE9EF"/><path d="M11.658 5.19h0.119v0.009h-0.119z" fill="#BFEBED"/><path d="M9.149 6.136h0.11v0.009h-0.11z" fill="#BFEDEF"/><path d="M1.648 10.955h0.095v0.009h-0.095z" fill="#BDEBED"/><path d="M8.321 6.16h0.095v0.009H8.321z" fill="#BFECEC"/><path d="M1.192 10.955h0.087v0.009h-0.087z" fill="#BFEBEE"/><path d="M3.81 11.918h0.079v0.009h-0.079z" fill="#BAEAEE"/><path d="M3.974 11.902h0.072v0.009h-0.072z" fill="#C1EBED"/><path d="M10.861 5.198h0.072v0.009h-0.072z" fill="#BBECEE"/><path d="M8.109 6.184h0.063v0.009h-0.063z" fill="#BEECEE"/><path d="M8.526 6.144h0.063v0.009h-0.063z" fill="#C2EFF2"/><path d="M11.862 5.198h0.063v0.009h-0.063z" fill="#BDECEE"/><path d="M4.125 11.895h0.054v0.009h-0.054z" fill="#BEECEE"/><path d="M1.435 10.964h0.054v0.009H1.435z" fill="#B8EBF0"/><path d="M2.09 10.909h0.054v0.009h-0.054z" fill="#C1EEED"/><path d="M10.735 5.213h0.054v0.009h-0.054z" fill="#C5ECEF"/><path d="M8.155 12.565h0.047v0.009H8.155z" fill="#BFE7EB"/><path d="M7.193 12.565h0.047v0.009h-0.047z" fill="#BEE4EA"/><path d="M2.784 11.902h0.047v0.009h-0.047z" fill="#C2ECEC"/><path d="M4.701 11.823h0.047v0.009h-0.047z" fill="#BFECEE"/><path d="M1.782 10.948h0.047v0.009h-0.047z" fill="#C0EDF0"/><path d="M1.908 10.931h0.047v0.009h-0.047z" fill="#C4EAF0"/><path d="M13.535 6.475h0.009v0.047h-0.009z" fill="#BFEBF0"/><path d="M13.535 6.255h0.009v0.047h-0.009z" fill="#BFECF0"/><path d="M9.292 6.144h0.047v0.009h-0.047z" fill="#C3F0F1"/><path d="M10.253 5.268h0.047v0.009h-0.047z" fill="#BCECEE"/><path d="M10.616 5.222h0.047v0.009h-0.047z" fill="#BEECEF"/><path d="M10.805 5.205h0.047v0.009h-0.047z" fill="#C5EEEF"/><path d="M8.045 12.572h0.039v0.009h-0.039z" fill="#BEE5EA"/><path d="M7.319 12.572h0.039v0.009h-0.039z" fill="#B8E4EA"/><path d="M8.313 12.541h0.039v0.009h-0.039z" fill="#C0E9EB"/><path d="M7.044 12.541h0.039v0.009H7.044z" fill="#C1E5E8"/><path d="M4.189 11.886h0.039v0.009h-0.039z" fill="#C4EFF1"/><path d="M4.361 11.87h0.039v0.009h-0.039z" fill="#BFECEF"/><path d="M6.815 6.405h0.039v0.009h-0.039z" fill="#C4EBED"/><path d="M7.154 6.333h0.039v0.009h-0.039z" fill="#C2EEED"/><path d="M7.927 6.207h0.039v0.009h-0.039z" fill="#BFE8EE"/><path d="M9.639 5.387h0.039v0.009h-0.039z" fill="#C2EDEC"/><path d="M9.741 5.364h0.039v0.009h-0.039z" fill="#C0EDF3"/><path d="M11.981 5.213h0.039v0.009h-0.039z" fill="#C0ECEF"/><path d="m8.439 12.518 0.032 0.009Z" fill="#C3E8EA"/><path d="m6.918 12.518 0.032 0.009Z" fill="#BFE3E7"/><path d="m2.958 11.918 0.032 0.009Z" fill="#B7E9ED"/><path d="m2.91 11.918 0.032 0.009Z" fill="#BFEDEE"/><path d="m2.872 11.91 0.032 0.009Z" fill="#C9EFF2"/><path d="m2.674 11.895 0.032 0.009Z" fill="#C0EEF0"/><path d="m4.244 11.879 0.032 0.009Z" fill="#C1EBEF"/><path d="m2.602 11.879 0.032 0.009Z" fill="#C0EBEF"/><path d="m4.543 11.847 0.032 0.009Z" fill="#BFEDEE"/><path d="m4.582 11.839 0.032 0.009Z" fill="#C0EDEF"/><path d="m4.858 11.799 0.032 0.009Z" fill="#C3EDEE"/><path d="m4.986 11.776 0.032 0.009Z" fill="#BFEBEF"/><path d="m5.112 11.751 0.032 0.009Z" fill="#BDE7EC"/><path d="m2.256 10.885 0.032 0.009Z" fill="#BCECEF"/><path d="m2.382 10.861 0.032 0.009Z" fill="#C1EDED"/><path d="m2.989 10.735 0.032 0.009Z" fill="#C0EBEE"/><path d="m3.076 10.712 0.032 0.009Z" fill="#C0EBF1"/><path d="m11.508 9.275 0.009 0.032Zm0.024 -0.095 0.009 0.032Z" fill="#C1E5E8"/><path d="m11.555 9.07 0.009 0.032Z" fill="#C2E7EB"/><path d="m10.119 6.681 0.009 0.032Z" fill="#BFECEE"/><path d="M13.519 6.633v0.024Z" fill="#C1ECF1"/><path d="m10.134 6.61 0.009 0.032Z" fill="#BFEFEF"/><path d="m13.527 6.57 0.009 0.032Z" fill="#C0E9EF"/><path d="m6.925 6.381 0.032 0.009Z" fill="#BFEBEF"/><path d="m7.035 6.358 0.032 0.009Z" fill="#BDEAEA"/><path d="m7.478 6.279 0.032 0.009Z" fill="#BEEBED"/><path d="m7.619 6.255 0.032 0.009Z" fill="#BEEBEE"/><path d="m8.029 6.192 0.032 0.009Z" fill="#BEEAF2"/><path d="m13.527 6.176 0.009 0.032Z" fill="#C1EEF0"/><path d="m8.242 6.169 0.032 0.009Z" fill="#BFECF0"/><path d="m9.441 6.16 0.032 0.009Z" fill="#C3EDF2"/><path d="m9.347 6.151 0.032 0.009Z" fill="#C0ECEF"/><path d="m8.487 6.151 0.032 0.009Z" fill="#BBEBEE"/><path d="m8.944 5.561 0.032 0.009Z" fill="#BEEBEE"/><path d="m9.859 5.339 0.032 0.009Z" fill="#C1EBEE"/><path d="m9.985 5.316 0.032 0.009Z" fill="#BFEAEE"/><path d="m10.119 5.292 0.032 0.009Z" fill="#BDEBEB"/><path d="m10.388 5.253 0.032 0.009Z" fill="#C2EFEF"/><path d="m10.427 5.245 0.032 0.009Z" fill="#BEEBED"/><path d="m10.586 5.229 0.032 0.009Z" fill="#C2EDEF"/><path d="m12.084 5.222 0.032 0.009Z" fill="#BAEDF0"/><path d="m7.359 12.581 0.024 0.009Z" fill="#C0E5E8"/><path d="m8.227 12.556 0.024 0.009Z" fill="#C1E7EA"/><path d="m7.145 12.556 0.024 0.009Z" fill="#BDE2E5"/><path d="m6.87 12.509 0.024 0.009Z" fill="#BFE3E8"/><path d="m6.815 12.493 0.024 0.009Z" fill="#C0E3E2"/><path d="m6.711 12.47 0.024 0.009Z" fill="#C0E1E5"/><path d="m8.913 12.392 0.024 0.009Z" fill="#C1E7EA"/><path d="m6.223 12.32 0.024 0.009Z" fill="#C0D9E0"/><path d="m2.516 11.87 0.024 0.009Z" fill="#C0EEF1"/><path d="m2.461 11.855 0.024 0.009Z" fill="#BFEBEF"/><path d="m2.398 11.847 0.024 0.009Z" fill="#BFECF0"/><path d="m2.287 11.823 0.024 0.009Z" fill="#BCEBED"/><path d="m4.771 11.807 0.024 0.009Z" fill="#B8E8ED"/><path d="m2.186 11.799 0.024 0.009Z" fill="#C4EEEE"/><path d="m4.898 11.792 0.024 0.009Z" fill="#C3EDF1"/><path d="m4.921 11.784 0.024 0.009Z" fill="#BFEBF0"/><path d="m1.83 10.939 0.024 0.009Z" fill="#C0EEF0"/><path d="m2.019 10.924 0.024 0.009Z" fill="#BFECF0"/><path d="m2.042 10.916 0.024 0.009Z" fill="#BEEBED"/><path d="m2.208 10.892 0.024 0.009Z" fill="#C1EEF2"/><path d="m2.461 10.853 0.024 0.009Z" fill="#BEEEF2"/><path d="m2.516 10.838 0.024 0.009Z" fill="#C2ECF1"/><path d="m2.587 10.829 0.024 0.009Z" fill="#C1EBF2"/><path d="m2.627 10.813 0.024 0.009Z" fill="#C2EEF1"/><path d="m2.8 10.782 0.024 0.009Z" fill="#C0EEED"/><path d="m2.902 10.759 0.024 0.009Z" fill="#BEEBEC"/><path d="m2.95 10.742 0.024 0.009Z" fill="#BDEBED"/><path d="m3.171 10.687 0.024 0.009Z" fill="#BCECEC"/><path d="m3.344 10.64 0.024 0.009Z" fill="#C1EDED"/><path d="m3.644 10.561 0.024 0.009Z" fill="#C1ECF0"/><path d="m3.715 10.538 0.024 0.009Z" fill="#BDEDF0"/><path d="m4.401 10.316 0.024 0.009Z" fill="#C2ECEB"/><path d="m5.553 9.898 0.024 0.009Z" fill="#BDEBEA"/><path d="m13.045 7.571 0.016 0.009 -0.016 0.009z" fill="#C2EEF1"/><path d="m7.091 6.349 0.024 0.009Z" fill="#C0EDF0"/><path d="m7.217 6.325 0.024 0.009Z" fill="#BEE9ED"/><path d="m7.399 6.286 0.024 0.009Z" fill="#C1E9F0"/><path d="m7.532 6.262 0.024 0.009Z" fill="#BDE9F0"/><path d="m7.69 6.239 0.024 0.009Z" fill="#BEEDEE"/><path d="m7.777 6.232 0.024 0.009Z" fill="#C2EEEE"/><path d="m9.693 6.207 0.024 0.009Z" fill="#BFEDF1"/><path d="m9.592 6.184 0.024 0.009Z" fill="#BFEDEC"/><path d="m9.536 6.176 0.024 0.009Z" fill="#BDEAEF"/><path d="m8.218 6.176 0.024 0.009Z" fill="#BFEBED"/><path d="m8.447 5.71 0.024 0.009Z" fill="#C2EBED"/><path d="m8.865 5.584 0.024 0.009Z" fill="#C1EEEF"/><path d="m9.205 5.49 0.024 0.009Z" fill="#BDEDEB"/><path d="m9.292 5.465 0.024 0.009Z" fill="#BFECED"/><path d="m12.541 5.316 0.024 0.009Z" fill="#C3EDF1"/><path d="m10.08 5.301 0.024 0.009Z" fill="#C2EEEF"/><path d="m10.199 5.285 0.024 0.009Z" fill="#C1EEF1"/><path d="m12.359 5.268 0.024 0.009Z" fill="#C0EEEE"/><path d="m12.241 5.245 0.024 0.009Z" fill="#BEEBEF"/><path d="m10.538 5.238 0.024 0.009Z" fill="#BEECF0"/><path d="m11.925 5.205 0.024 0.009Z" fill="#C4EDF1"/><path d="m8.029 12.581 0.016 0.009Z" fill="#C4EBEC"/><path d="m8.258 12.548 0.016 0.009Z" fill="#BFE7EA"/><path d="m7.122 12.548 0.016 0.009Z" fill="#BEE6EA"/><path d="m8.376 12.533 0.016 0.009Z" fill="#C2E7EE"/><path d="m8.4 12.525 0.016 0.009Z" fill="#BDE5EB"/><path d="m6.981 12.525 0.016 0.009Z" fill="#BDE3E9"/><path d="m8.495 12.509 0.016 0.009Z" fill="#C3E7EC"/><path d="m6.855 12.502 0.016 0.009Z" fill="#BDE1E9"/><path d="m8.55 12.493 0.016 0.009Z" fill="#C2E8E8"/><path d="m6.759 12.485 0.016 0.009Z" fill="#BEE4E6"/><path d="m8.645 12.47 0.016 0.009Z" fill="#C3E7F0"/><path d="m8.691 12.462 0.016 0.009Z" fill="#C0EAEA"/><path d="m6.666 12.462 0.016 0.009Z" fill="#BCE1E5"/><path d="m8.708 12.455 0.016 0.009Z" fill="#C2E9EB"/><path d="m8.724 12.446 0.016 0.009Z" fill="#C2E8EB"/><path d="m6.625 12.446 0.016 0.009Z" fill="#C6E2EA"/><path d="m8.771 12.439 0.016 0.009Z" fill="#C0E9EC"/><path d="m6.578 12.439 0.016 0.009Z" fill="#BDDEE3"/><path d="m8.787 12.43 0.016 0.009Z" fill="#C0E9EE"/><path d="m6.562 12.43 0.016 0.009Z" fill="#BDDEE4"/><path d="m6.499 12.415 0.016 0.009Z" fill="#C2DEE3"/><path d="m6.421 12.392 0.016 0.009Z" fill="#C5E5E7"/><path d="m6.405 12.383 0.016 0.009Z" fill="#C1DFE3"/><path d="m8.976 12.367 0.016 0.009Z" fill="#BDE6E8"/><path d="m6.358 12.367 0.016 0.009Zm-0.072 -0.024 0.016 0.009Z" fill="#C0DBDF"/><path d="m9.062 12.336 0.016 0.009Z" fill="#BFE9EA"/><path d="m9.149 12.296 0.016 0.009Z" fill="#BDE7ED"/><path d="m6.169 12.296 0.016 0.009Z" fill="#BED8DD"/><path d="m9.205 12.273 0.016 0.009Z" fill="#C5EBEE"/><path d="m6.106 12.273 0.016 0.009Z" fill="#C0DBDF"/><path d="m6.073 12.266 0.016 0.009Z" fill="#C2DADF"/><path d="m9.259 12.248 0.016 0.009Z" fill="#C4ECF1"/><path d="m9.284 12.241 0.016 0.009Z" fill="#C0E6E8"/><path d="m5.995 12.225 0.016 0.009Z" fill="#C1DBE1"/><path d="m9.394 12.185 0.016 0.009Z" fill="#BFE8EC"/><path d="m5.861 12.17 0.016 0.009Z" fill="#BDDAE5"/><path d="m9.466 12.147 0.016 0.009Z" fill="#C2EAEB"/><path d="m9.544 12.099 0.016 0.009Z" fill="#C1E7EA"/><path d="m5.609 12.044 0.016 0.009Z" fill="#C2DCE3"/><path d="m9.702 12.005 0.016 0.009Z" fill="#C0ECEB"/><path d="m5.481 11.973 0.016 0.009Z" fill="#C1DADE"/><path d="m5.442 11.949 0.016 0.009Z" fill="#C0DADF"/><path d="m3.92 11.91 0.016 0.009Z" fill="#C9EFF2"/><path d="m3.896 11.91 0.016 0.009Z" fill="#C1EFF0"/><path d="m2.65 11.886 0.016 0.009Z" fill="#BFEDF0"/><path d="m2.501 11.862 0.016 0.009Z" fill="#C1EDEF"/><path d="m4.448 11.855 0.016 0.009Z" fill="#BFEBF0"/><path d="m2.375 11.839 0.016 0.009Z" fill="#BDEEEE"/><path d="m4.622 11.832 0.016 0.009Z" fill="#BFEDF1"/><path d="m2.35 11.832 0.016 0.009Z" fill="#BCEBEF"/><path d="m4.749 11.814 0.016 0.009Z" fill="#BEECEF"/><path d="m2.264 11.814 0.016 0.009Z" fill="#C0EBED"/><path d="m2.114 11.776 0.016 0.009Z" fill="#C2EDF0"/><path d="m5.04 11.769 0.016 0.009Z" fill="#BEECED"/><path d="m2.09 11.769 0.016 0.009Z" fill="#C1EDEE"/><path d="m2.042 11.751 0.016 0.009Z" fill="#C2EEF1"/><path d="m1.979 11.728 0.016 0.009Z" fill="#BEEDF3"/><path d="m1.956 11.721 0.016 0.009Z" fill="#BDECEC"/><path d="m1.815 11.658 0.016 0.009Z" fill="#C0EEF0"/><path d="m2.335 10.876 0.016 0.009Z" fill="#C4EDF4"/><path d="m2.359 10.868 0.016 0.009Z" fill="#C1EEF1"/><path d="m2.492 10.845 0.016 0.009Z" fill="#C3EEF3"/><path d="m2.611 10.822 0.016 0.009Z" fill="#C0EDF0"/><path d="m2.698 10.805 0.016 0.009Z" fill="#C6ECF2"/><path d="m2.728 10.798 0.016 0.009Z" fill="#BDE9EC"/><path d="m2.746 10.79 0.016 0.009Z" fill="#BEEDF1"/><path d="m2.854 10.766 0.016 0.009Z" fill="#BCEAEE"/><path d="m3.132 10.703 0.016 0.009Z" fill="#BFEDF0"/><path d="m3.147 10.694 0.016 0.009Z" fill="#C0ECEE"/><path d="m3.225 10.679 0.016 0.009Z" fill="#C1EEEE"/><path d="m3.241 10.672 0.016 0.009Z" fill="#BFECEF"/><path d="m3.258 10.664 0.016 0.009Z" fill="#C1EFF3"/><path d="m3.328 10.649 0.016 0.009Z" fill="#C5F0F2"/><path d="m3.399 10.631 0.016 0.009Z" fill="#C3F0F2"/><path d="m3.439 10.616 0.016 0.009Z" fill="#BFEBF0"/><path d="m3.518 10.593 0.016 0.009Z" fill="#C5EDEF"/><path d="m3.558 10.586 0.016 0.009Z" fill="#C2EFF3"/><path d="m3.605 10.568 0.016 0.009Z" fill="#C1EAEC"/><path d="m3.684 10.545 0.016 0.009Z" fill="#C3EEEF"/><path d="m3.794 10.514 0.016 0.009Z" fill="#C1E9EE"/><path d="m3.833 10.505 0.016 0.009Z" fill="#C1EDEC"/><path d="m3.848 10.498 0.016 0.009Z" fill="#BCEBEA"/><path d="m3.873 10.49 0.016 0.009Z" fill="#BDE3E6"/><path d="m3.944 10.467 0.016 0.009Z" fill="#C2E9E8"/><path d="m4.022 10.442 0.016 0.009Z" fill="#BBEBE8"/><path d="m4.062 10.435 0.016 0.009Z" fill="#C3E8EE"/><path d="m4.078 10.427 0.016 0.009Z" fill="#C0EDEC"/><path d="m4.093 10.419 0.016 0.009Z" fill="#BDE8EA"/><path d="m4.204 10.388 0.016 0.009Z" fill="#C0E7ED"/><path d="m4.228 10.379 0.016 0.009Z" fill="#C2EEEC"/><path d="m4.275 10.364 0.016 0.009Z" fill="#C1E8E7"/><path d="m4.315 10.349 0.016 0.009Z" fill="#C0E7EC"/><path d="m4.338 10.341 0.016 0.009Z" fill="#C7ECEB"/><path d="m4.48 10.293 0.016 0.009Z" fill="#C0E9E8"/><path d="m4.552 10.269 0.016 0.009Z" fill="#BFE7EA"/><path d="m4.59 10.262 0.016 0.009Z" fill="#BEE7EE"/><path d="m4.653 10.238 0.016 0.009Z" fill="#C4E8ED"/><path d="m4.669 10.23 0.016 0.009Z" fill="#BFECEE"/><path d="m4.819 10.175 0.016 0.009Z" fill="#C0E7EC"/><path d="m4.851 10.167 0.016 0.009Z" fill="#BEE9EA"/><path d="m4.914 10.143 0.016 0.009Z" fill="#BFE8ED"/><path d="m4.977 10.119 0.016 0.009Z" fill="#BCEAE9"/><path d="m5.04 10.096 0.016 0.009Z" fill="#B9E9EB"/><path d="m5.292 10.001 0.016 0.009Z" fill="#BCE7E9"/><path d="m5.324 9.993 0.016 0.009Z" fill="#BEEAED"/><path d="m5.379 9.97 0.016 0.009Z" fill="#C0E9ED"/><path d="m5.498 9.922 0.016 0.009Z" fill="#C3E7EA"/><path d="m5.616 9.875 0.016 0.009Z" fill="#C0E6EB"/><path d="m5.869 9.772 0.016 0.009Z" fill="#C4EDEC"/><path d="m5.978 9.725 0.016 0.009Z" fill="#C5ECED"/><path d="m6.034 9.702 0.016 0.009Z" fill="#BCECEF"/><path d="m6.088 9.678 0.016 0.009Z" fill="#C1ECED"/><path d="m6.144 9.655 0.016 0.009Z" fill="#BEEAF0"/><path d="m6.184 9.639 0.016 0.009Z" fill="#C1EDEF"/><path d="m6.325 9.574 0.016 0.009Z" fill="#C0EBEE"/><path d="m6.358 9.559 0.016 0.009Z" fill="#BEEAE8"/><path d="m6.429 9.529 0.016 0.009Z" fill="#C2E9F2"/><path d="m6.752 9.378 0.016 0.009Z" fill="#C1EAE9"/><path d="m6.799 9.355 0.016 0.009Z" fill="#BEEAEE"/><path d="m6.981 9.259 0.016 0.009Z" fill="#C0EBEF"/><path d="m7.028 9.236 0.016 0.009Z" fill="#C1EDED"/><path d="m7.145 9.181 0.016 0.009Z" fill="#BFEBEC"/><path d="m7.469 9.007 0.016 0.009Z" fill="#BFEBF1"/><path d="m7.595 8.936 0.016 0.009Z" fill="#BFEDEE"/><path d="m7.675 8.888 0.016 0.009Z" fill="#BFECED"/><path d="m7.894 8.762 0.016 0.009Z" fill="#C1F0EA"/><path d="m8.076 8.652 0.016 0.009Z" fill="#C0EEF0"/><path d="m11.988 8.645 0.016 0.009Z" fill="#C0ECEA"/><path d="m8.25 8.542 0.016 0.009Z" fill="#C3EDF1"/><path d="m8.795 8.172 0.016 0.009Z" fill="#C0E9EE"/><path d="m6.862 6.396 0.016 0.009Z" fill="#BEECF1"/><path d="m6.885 6.388 0.016 0.009Z" fill="#C3EFEF"/><path d="m6.981 6.373 0.016 0.009Z" fill="#C0EBED"/><path d="m6.822 6.373 0.016 0.009Z" fill="#C1EDEC"/><path d="m7.115 6.342 0.016 0.009Z" fill="#B9EAEE"/><path d="m6.909 6.325 0.016 0.009Z" fill="#C3EAEE"/><path d="m7.241 6.318 0.016 0.009Z" fill="#BAEBF0"/><path d="m7.271 6.31 0.016 0.009Z" fill="#C1EDEE"/><path d="m7.352 6.302 0.016 0.009Z" fill="#BFEBEC"/><path d="m7.011 6.279 0.016 0.009Z" fill="#BFECEC"/><path d="m9.844 6.255 0.016 0.009Z" fill="#BDEAF0"/><path d="m7.658 6.247 0.016 0.009Z" fill="#C1EDF0"/><path d="m9.811 6.239 0.016 0.009Z" fill="#C1EEF6"/><path d="m9.772 6.232 0.016 0.009Z" fill="#C4EDEF"/><path d="m7.115 6.232 0.016 0.009Z" fill="#BEEBEE"/><path d="m7.824 6.223 0.016 0.009Z" fill="#BEECEB"/><path d="m7.849 6.214 0.016 0.009Z" fill="#BEE9EF"/><path d="m8.005 6.199 0.016 0.009Z" fill="#C2ECEF"/><path d="m7.296 6.151 0.016 0.009Z" fill="#C2EEF1"/><path d="m7.352 6.128 0.016 0.009Z" fill="#C0ECEE"/><path d="m7.406 6.106 0.016 0.009Z" fill="#BEEBEE"/><path d="m7.462 6.081 0.016 0.009Z" fill="#C1EAEC"/><path d="m7.604 6.025 0.016 0.009Z" fill="#C1ECEF"/><path d="m7.619 6.018 0.016 0.009Z" fill="#C1EDF0"/><path d="m7.635 6.01 0.016 0.009Z" fill="#BDEDEF"/><path d="m7.658 6.002 0.016 0.009Z" fill="#C4ECEE"/><path d="m7.714 5.978 0.016 0.009Z" fill="#C4EEF0"/><path d="m7.777 5.955 0.016 0.009Z" fill="#C0E9EB"/><path d="m7.998 5.876 0.016 0.009Z" fill="#BCECF0"/><path d="m8.022 5.861 0.016 0.009Z" fill="#C3EDED"/><path d="m8.053 5.852 0.016 0.009Z" fill="#C1EFF3"/><path d="m8.076 5.845 0.016 0.009Z" fill="#BEEAEF"/><path d="m8.124 5.828 0.016 0.009Z" fill="#C4EAEC"/><path d="m8.155 5.813 0.016 0.009Z" fill="#C0ECED"/><path d="m8.187 5.805 0.016 0.009Z" fill="#C0ECEF"/><path d="m8.258 5.782 0.016 0.009Z" fill="#C3EAF0"/><path d="m8.321 5.758 0.016 0.009Z" fill="#BFE9F2"/><path d="m8.361 5.742 0.016 0.009Z" fill="#BFEAF1"/><path d="m8.432 5.719 0.016 0.009Z" fill="#BFECEF"/><path d="m8.495 5.702 0.016 0.009Z" fill="#BFECF0"/><path d="m8.526 5.687 0.016 0.009Z" fill="#C4EDEE"/><path d="m8.582 5.672 0.016 0.009Z" fill="#BFEEEF"/><path d="m8.598 5.663 0.016 0.009Z" fill="#C0ECEE"/><path d="m8.645 5.654 0.016 0.009Z" fill="#C2EDEC"/><path d="m8.676 5.639 0.016 0.009Z" fill="#BDEEF0"/><path d="m8.715 5.632 0.016 0.009Z" fill="#C5EEF1"/><path d="m8.755 5.616 0.016 0.009Z" fill="#C0EDF1"/><path d="m8.795 5.609 0.016 0.009Z" fill="#C2EEEE"/><path d="m8.818 5.6 0.016 0.009Z" fill="#C3EBF3"/><path d="m8.834 5.591 0.016 0.009Z" fill="#C3EEF2"/><path d="m8.999 5.546 0.016 0.009Z" fill="#C2ECF1"/><path d="m13.053 5.537 0.016 0.009Z" fill="#C4EDF3"/><path d="m9.032 5.537 0.016 0.009Z" fill="#C3EDF2"/><path d="m9.118 5.513 0.016 0.009Z" fill="#C3EDF0"/><path d="m9.165 5.505 0.016 0.009Z" fill="#C2EDF0"/><path d="m9.181 5.498 0.016 0.009Z" fill="#C3EBEE"/><path d="m9.394 5.442 0.016 0.009Z" fill="#C1EDF1"/><path d="m12.856 5.435 0.016 0.009Z" fill="#BDEBEE"/><path d="m9.448 5.435 0.016 0.009Z" fill="#BFEEF1"/><path d="m9.473 5.427 0.016 0.009Z" fill="#C2EBED"/><path d="m9.488 5.418 0.016 0.009Z" fill="#C2EEEE"/><path d="m12.808 5.411 0.016 0.009Z" fill="#C5EFF4"/><path d="m9.544 5.411 0.016 0.009Z" fill="#C0EEEF"/><path d="m9.574 5.402 0.016 0.009Z" fill="#C4EFEC"/><path d="m9.599 5.395 0.016 0.009Z" fill="#BFECEE"/><path d="m12.745 5.387 0.016 0.009Z" fill="#C1F0F1"/><path d="m12.715 5.372 0.016 0.009Z" fill="#C0EDED"/><path d="m12.691 5.364 0.016 0.009Z" fill="#C3EEF3"/><path d="m9.811 5.355 0.016 0.009Z" fill="#C2EDF1"/><path d="m12.644 5.348 0.016 0.009Z" fill="#C0EEF1"/><path d="m9.828 5.348 0.016 0.009Z" fill="#BCEBEE"/><path d="m12.611 5.339 0.016 0.009Z" fill="#BEE9ED"/><path d="m9.93 5.331 0.016 0.009Z" fill="#C1EDF2"/><path d="m12.493 5.309 0.016 0.009Z" fill="#BCEBF0"/><path d="m10.064 5.309 0.016 0.009Z" fill="#BEECF0"/><path d="m12.462 5.292 0.016 0.009Z" fill="#C1ECEC"/><path d="m12.407 5.285 0.016 0.009Z" fill="#C0ECF3"/><path d="m12.383 5.276 0.016 0.009Z" fill="#BFECF0"/><path d="m10.238 5.276 0.016 0.009Z" fill="#BDEAF0"/><path d="m12.288 5.261 0.016 0.009Z" fill="#BCEBF0"/><path d="m10.364 5.261 0.016 0.009Z" fill="#BEEBEF"/><path d="m12.162 5.238 0.016 0.009Z" fill="#B9E9EF"/><path d="m12.122 5.229 0.016 0.009Z" fill="#C3EBF1"/></svg>